<?xml version="1.0" standalone="no"?>
<!DOCTYPE svg PUBLIC "-//W3C//DTD SVG 20010904//EN"
 "http://www.w3.org/TR/2001/REC-SVG-20010904/DTD/svg10.dtd">
<svg version="1.0" xmlns="http://www.w3.org/2000/svg"
 width="1356.000000pt" height="1356.000000pt" viewBox="0 0 1356.000000 1356.000000"
 preserveAspectRatio="xMidYMid meet">
<metadata>
Created by potrace 1.14, written by Peter Selinger 2001-2017
</metadata>
<g transform="translate(0.000000,1356.000000) scale(0.100000,-0.100000)"
fill="#000000" stroke="none">
<path d="M1099 12117 c-9 -7 -41 -12 -72 -11 -31 0 -54 -2 -52 -5 1 -3 -8 -7
-22 -8 -14 0 -29 -7 -34 -15 -5 -7 -9 -8 -9 -2 0 5 5 15 11 21 13 13 -44 -5
-70 -21 -11 -7 -12 -6 -6 5 7 11 6 12 -6 3 -16 -12 -29 -12 -46 -1 -9 5 -11 3
-7 -7 4 -11 0 -13 -17 -9 -17 5 -20 3 -14 -8 7 -11 6 -12 -7 -2 -8 7 -18 10
-21 6 -4 -3 -19 -6 -34 -7 -16 -1 -34 -5 -42 -10 -9 -6 -12 -5 -8 1 3 5 0 10
-8 10 -8 0 -12 -4 -10 -8 3 -4 -2 -10 -11 -13 -8 -3 -12 -2 -9 4 3 6 1 10 -4
10 -6 0 -11 -5 -11 -11 0 -8 -6 -7 -17 2 -14 12 -16 12 -8 0 6 -11 3 -13 -13
-9 -12 4 -22 1 -22 -4 0 -6 -8 -4 -17 3 -11 10 -14 10 -9 2 4 -7 4 -14 -1 -14
-4 -1 -17 -3 -28 -5 -11 -1 -36 -5 -55 -8 -19 -3 -36 -10 -38 -16 -2 -6 -8 -8
-13 -5 -4 3 -19 -1 -32 -10 -13 -8 -27 -12 -32 -8 -4 5 -5 2 -1 -4 5 -9 0 -13
-16 -13 -18 0 -20 -2 -8 -10 12 -8 11 -10 -7 -10 -12 0 -25 -5 -29 -12 -5 -7
-2 -9 7 -4 8 4 5 0 -5 -8 -11 -9 -24 -16 -29 -16 -4 0 -5 -4 -2 -10 5 -9 -7
-14 -27 -12 -3 1 -9 -5 -12 -14 -4 -10 -1 -13 7 -9 6 4 1 -2 -12 -13 -16 -13
-22 -25 -18 -36 5 -11 3 -15 -5 -10 -8 5 -9 2 -4 -11 5 -14 4 -16 -7 -6 -12 9
-14 6 -11 -15 2 -19 -1 -24 -12 -20 -9 3 -12 1 -9 -5 4 -5 2 -15 -3 -22 -5 -7
-8 -20 -7 -29 2 -12 -2 -15 -13 -10 -14 5 -15 3 -5 -9 9 -11 9 -19 2 -26 -8
-8 -8 -13 0 -17 6 -4 11 -12 11 -18 0 -6 -6 -6 -15 2 -13 11 -14 10 -9 -5 6
-14 4 -16 -6 -10 -9 5 -11 4 -6 -4 4 -6 11 -9 16 -6 5 3 12 0 16 -6 4 -8 3 -9
-4 -5 -7 4 -12 3 -12 -3 0 -5 6 -12 13 -14 6 -3 3 -6 -7 -6 -20 -1 -20 -1 0
-16 18 -15 18 -15 0 -8 -13 4 -17 3 -13 -4 4 -6 1 -14 -5 -16 -10 -4 -10 -6 0
-6 7 -1 10 -5 7 -11 -3 -5 -1 -10 5 -10 7 0 9 7 5 18 -5 14 -4 15 7 4 11 -11
9 -16 -7 -28 -11 -8 -20 -23 -20 -32 0 -9 -3 -22 -7 -28 -4 -6 -1 -11 6 -11 8
0 12 11 11 29 -2 19 2 28 12 28 9 0 11 -5 6 -12 -12 -19 -11 -92 1 -100 7 -5
4 -8 -8 -8 -12 0 -16 5 -13 15 4 8 3 17 -2 19 -4 3 -7 -8 -7 -25 0 -20 4 -28
12 -25 8 3 16 0 20 -6 4 -6 3 -9 -2 -5 -5 3 -15 -6 -21 -19 -11 -23 -10 -24
10 -20 12 3 16 3 10 0 -9 -4 -10 -11 -3 -23 6 -13 5 -18 -5 -18 -7 0 -11 7 -8
16 4 13 3 13 -5 2 -6 -8 -8 -20 -5 -28 3 -7 -1 -13 -8 -13 -7 0 -9 -3 -6 -6 4
-4 13 -1 22 6 13 11 14 10 9 -5 -6 -14 -4 -16 6 -10 9 5 11 4 6 -4 -4 -6 -12
-9 -17 -6 -5 4 -9 3 -10 -2 -5 -45 -4 -63 4 -63 5 0 3 -7 -4 -16 -12 -15 -11
-16 11 -10 21 6 22 5 8 -4 -20 -12 -25 -35 -5 -24 8 5 8 3 -2 -9 -11 -14 -11
-18 3 -23 15 -6 15 -7 0 -19 -16 -11 -16 -13 0 -22 17 -9 17 -11 2 -16 -12 -5
-15 -3 -10 6 4 6 3 9 -1 4 -5 -4 -10 -18 -12 -30 -2 -17 -1 -19 7 -7 8 13 10
13 10 -1 0 -9 -3 -19 -7 -23 -9 -9 -12 -76 -3 -71 3 2 12 -6 20 -18 12 -20 12
-21 -3 -8 -18 14 -19 13 -21 -36 -1 -18 2 -33 7 -33 5 0 7 7 3 15 -8 22 2 18
15 -6 6 -12 7 -19 2 -16 -5 3 -17 -3 -26 -14 -18 -21 -9 -27 12 -6 10 10 11 8
5 -7 -6 -15 -4 -17 7 -11 12 8 12 6 0 -8 -15 -18 -26 -23 -16 -7 10 16 -1 11
-16 -7 -8 -10 -9 -14 -2 -10 6 4 14 3 18 -3 4 -6 11 -7 17 -4 7 4 8 2 4 -5 -4
-6 -12 -9 -17 -6 -5 3 -6 -1 -3 -9 3 -9 11 -13 17 -9 6 3 7 1 3 -6 -5 -8 -12
-9 -19 -2 -9 6 -12 2 -13 -15 -1 -13 2 -24 8 -24 5 0 6 4 3 10 -3 6 1 7 10 3
12 -4 13 -8 5 -13 -8 -5 -9 -13 -4 -21 6 -10 3 -10 -11 1 -17 14 -18 14 -7 -7
7 -12 15 -23 19 -25 5 -3 2 -3 -6 -1 -11 3 -9 -3 5 -19 13 -15 14 -18 2 -10
-11 9 -18 10 -23 2 -3 -5 -2 -10 2 -10 5 0 14 -9 21 -21 8 -12 9 -18 3 -14 -6
3 -14 -1 -17 -9 -3 -9 -11 -13 -18 -9 -6 4 -5 -1 3 -10 7 -9 10 -17 5 -17 -4
0 -3 -5 4 -12 13 -13 16 -32 4 -24 -4 2 -9 -4 -9 -15 -1 -10 3 -19 8 -19 6 0
8 4 5 8 -3 5 2 9 11 9 12 0 11 -5 -7 -19 -20 -16 -15 -24 13 -19 5 1 5 -3 2
-9 -4 -6 -13 -9 -21 -6 -8 3 -14 1 -14 -4 0 -6 5 -10 10 -10 7 0 7 -6 1 -19
-6 -10 -8 -21 -4 -24 3 -4 0 -15 -8 -24 -13 -17 -13 -17 5 -3 18 14 19 13 13
-3 -4 -10 -7 -21 -7 -23 0 -3 -6 -2 -12 2 -7 4 -3 -3 9 -15 24 -23 32 -41 11
-23 -10 8 -13 -3 -14 -49 -1 -32 3 -59 8 -59 5 0 4 -8 -1 -19 -6 -10 -7 -21
-3 -25 3 -4 0 -11 -8 -16 -11 -7 -12 -10 -2 -10 7 0 10 -5 6 -12 -5 -7 -3 -8
5 -4 15 10 11 -25 -4 -37 -6 -5 1 -6 15 -3 l25 5 -23 -17 c-18 -14 -20 -20
-10 -31 10 -11 10 -12 1 -7 -7 4 -13 2 -13 -3 0 -6 8 -11 18 -12 14 0 14 -2
-3 -9 -13 -6 -15 -9 -5 -9 13 -1 13 -2 0 -11 -10 -6 -11 -10 -2 -10 6 0 12 -5
12 -11 0 -5 -4 -8 -9 -5 -4 3 -7 -8 -5 -25 3 -22 0 -28 -9 -23 -6 4 -4 -2 5
-13 19 -21 24 -38 9 -28 -5 3 -13 0 -17 -6 -4 -7 -3 -9 4 -5 12 7 11 -41 -2
-62 -5 -8 1 -15 16 -21 21 -9 21 -10 3 -11 -17 0 -17 -2 -5 -10 13 -9 13 -10
0 -10 -13 0 -13 -2 0 -9 8 -6 18 -7 24 -4 5 3 6 1 2 -5 -4 -6 -14 -8 -22 -5
-14 5 -15 3 -4 -17 8 -15 8 -20 1 -16 -6 4 -11 2 -11 -3 0 -6 5 -11 11 -11 8
0 7 -5 -2 -16 -10 -13 -10 -17 0 -24 11 -6 11 -9 0 -13 -10 -4 -10 -6 -1 -6 6
-1 12 -6 12 -12 0 -5 -4 -8 -8 -5 -4 2 -8 -9 -7 -25 0 -16 3 -29 7 -29 12 0 5
-24 -12 -38 -10 -9 -11 -11 -1 -6 9 4 12 2 9 -7 -3 -8 -1 -22 4 -33 7 -13 7
-16 -1 -12 -6 4 -11 2 -11 -3 0 -6 5 -11 11 -11 8 0 8 -5 -1 -15 -7 -8 -9 -15
-5 -15 4 0 1 -8 -6 -17 -8 -9 -9 -14 -3 -10 16 9 25 -18 11 -32 -8 -8 -7 -11
3 -12 10 0 7 -4 -5 -9 -19 -8 -19 -9 -1 -9 16 -1 17 -3 5 -17 -15 -19 -21 -47
-8 -38 5 3 9 2 10 -3 0 -4 2 -18 3 -30 1 -12 -1 -20 -6 -17 -4 3 -8 0 -8 -5 0
-6 5 -11 10 -11 6 0 10 -5 10 -11 0 -5 -4 -8 -9 -4 -5 3 -13 1 -16 -5 -4 -6
-3 -9 2 -8 4 2 8 -1 8 -7 0 -5 -4 -9 -9 -7 -5 2 -5 -3 1 -10 6 -7 9 -21 8 -30
-2 -10 1 -18 6 -18 5 0 9 -5 9 -11 0 -5 -5 -7 -11 -3 -8 4 -9 -1 -4 -17 12
-35 12 -62 3 -81 -5 -10 -5 -18 0 -18 4 0 8 -9 8 -19 0 -15 -3 -17 -13 -9 -10
8 -12 7 -7 -6 3 -9 9 -16 13 -16 10 0 8 -31 -3 -48 -4 -7 -2 -12 5 -12 7 0 5
-6 -6 -13 -13 -10 -15 -16 -6 -21 6 -4 8 -12 5 -18 -5 -7 -2 -8 7 -3 12 8 12
6 0 -8 -11 -14 -11 -17 0 -17 9 0 10 -3 3 -8 -19 -13 -25 -42 -9 -49 14 -5 13
-7 -1 -18 -12 -8 -13 -14 -6 -19 6 -4 8 -14 5 -23 -5 -12 -3 -14 8 -8 12 8 12
6 0 -8 -8 -10 -11 -20 -7 -24 3 -3 6 0 6 7 0 7 3 10 7 7 3 -4 -2 -16 -12 -27
-13 -15 -15 -19 -4 -15 10 4 15 -1 16 -15 1 -11 -3 -20 -8 -20 -6 0 -7 5 -3
12 4 6 3 8 -4 5 -5 -4 -8 -16 -5 -27 3 -11 9 -18 13 -15 10 6 7 -21 -3 -31
-12 -12 -8 -26 5 -18 7 5 8 3 3 -6 -5 -7 -10 -34 -11 -59 -3 -32 -1 -41 6 -31
5 8 10 11 10 6 0 -5 -7 -17 -16 -27 -12 -13 -12 -19 -3 -25 8 -4 10 -3 5 4 -4
7 -2 12 3 12 14 0 14 -13 -1 -28 -9 -9 -9 -12 1 -12 7 0 9 -4 6 -10 -11 -17
-15 -52 -7 -64 10 -17 11 -37 1 -30 -5 3 -6 10 -3 16 4 7 2 8 -4 4 -8 -5 -9
-13 -3 -24 6 -11 6 -24 0 -35 -8 -14 -7 -15 8 -10 16 6 16 5 4 -10 -11 -14
-11 -17 0 -17 8 0 6 -5 -6 -13 -14 -11 -15 -16 -5 -22 9 -6 11 -4 5 5 -5 9 -4
11 4 6 8 -5 9 -12 3 -19 -6 -7 -9 -27 -7 -44 2 -22 -1 -31 -9 -26 -6 3 -3 -3
7 -14 14 -16 15 -23 6 -29 -8 -5 -10 -3 -4 6 6 9 4 11 -4 5 -9 -5 -10 -10 -2
-18 15 -15 14 -30 -1 -21 -6 4 -8 3 -5 -3 3 -5 9 -24 12 -42 4 -23 2 -30 -6
-25 -8 5 -9 2 -1 -11 6 -11 6 -30 1 -47 -5 -17 -4 -26 2 -23 5 4 9 -1 9 -10 0
-9 -5 -13 -11 -9 -8 5 -8 1 0 -14 14 -27 14 -35 -1 -26 -7 5 -8 3 -3 -6 9 -15
9 -155 -1 -171 -4 -8 -3 -9 5 -5 9 6 10 0 5 -20 -5 -19 -4 -25 4 -20 8 5 10 2
6 -8 -3 -9 -11 -16 -18 -16 -6 0 -3 -5 7 -11 13 -8 15 -15 8 -28 -7 -12 -6
-22 2 -31 10 -10 8 -12 -8 -6 -15 6 -17 4 -8 -5 6 -6 9 -18 6 -25 -3 -8 0 -14
6 -14 6 0 11 -5 11 -11 0 -5 -5 -7 -12 -3 -7 4 -8 3 -4 -5 4 -6 2 -18 -4 -26
-10 -12 -7 -13 17 -9 l28 5 -22 -16 c-28 -20 -30 -35 -5 -35 10 0 19 -7 19
-15 0 -8 -5 -15 -11 -15 -6 0 -5 -4 2 -9 8 -4 13 -12 13 -17 0 -5 6 -9 13 -9
8 0 18 -4 23 -9 4 -5 3 -6 -4 -2 -17 9 -17 -6 0 -23 10 -11 9 -12 -2 -6 -9 5
-12 4 -7 -3 4 -7 14 -12 23 -12 10 0 14 -6 10 -19 -4 -15 0 -19 14 -16 10 2
22 -1 25 -7 4 -7 2 -8 -4 -4 -7 4 -12 2 -12 -3 0 -11 15 -15 34 -12 5 1 3 -6
-5 -15 -9 -12 -9 -15 -2 -10 8 4 13 2 13 -4 0 -6 4 -8 10 -5 5 3 10 1 10 -4 0
-6 6 -10 13 -8 6 1 11 -4 9 -11 -1 -8 2 -11 8 -7 5 3 10 0 10 -7 0 -9 3 -9 10
2 8 13 10 12 10 -4 0 -12 5 -16 15 -12 8 3 15 1 15 -5 0 -6 5 -7 11 -4 5 4 19
-1 29 -10 11 -10 20 -13 24 -6 5 7 13 7 26 -1 10 -7 17 -16 14 -20 -3 -4 2 -5
10 -2 9 3 13 10 10 15 -3 5 2 6 10 3 9 -3 16 -11 16 -18 0 -6 5 -4 10 4 7 11
10 11 10 2 0 -9 10 -12 30 -8 17 2 30 0 30 -5 0 -5 4 -9 10 -9 5 0 7 8 3 18
-5 14 -3 13 10 -3 12 -14 16 -16 17 -6 0 11 4 9 15 -5 15 -19 15 -19 8 1 -6
17 -4 18 8 8 12 -10 18 -10 29 0 9 8 11 9 6 0 -3 -6 -2 -14 4 -18 5 -3 10 2
11 12 0 16 1 16 9 -2 5 -11 9 -15 9 -8 1 7 7 10 15 7 8 -3 17 0 21 6 5 8 10 8
20 0 8 -7 19 -9 25 -5 5 3 10 1 10 -5 0 -7 6 -8 19 0 11 5 22 6 25 2 6 -9 78
-8 95 2 6 4 11 3 11 -2 0 -10 30 -9 48 2 7 4 12 2 12 -5 0 -8 4 -8 15 1 11 9
15 9 15 1 0 -8 5 -9 19 -1 13 7 22 7 26 0 5 -9 18 -9 60 0 6 1 12 1 15 0 15
-7 82 -5 86 2 3 4 13 4 22 0 22 -11 103 -9 121 2 10 6 12 5 7 -2 -5 -8 0 -11
16 -8 13 2 29 -2 37 -8 11 -8 13 -8 7 2 -5 8 -1 11 16 8 13 -2 29 2 37 8 12 9
13 8 7 -3 -7 -10 -3 -12 13 -6 13 4 21 2 21 -6 0 -8 4 -8 12 -2 7 6 30 9 51 7
20 -2 37 1 37 7 0 6 5 7 10 4 6 -4 8 -11 5 -16 -4 -5 3 -6 17 -1 13 5 44 7 71
6 34 -2 45 1 40 9 -3 7 2 5 13 -4 12 -11 26 -14 39 -9 11 4 32 4 48 -1 15 -4
27 -4 27 1 0 16 104 6 112 -10 5 -11 7 -10 7 5 1 17 3 17 11 5 5 -8 10 -10 10
-3 0 13 37 6 59 -11 12 -9 14 -8 9 4 -4 11 1 15 17 15 13 0 21 -3 19 -6 -5 -8
49 -4 64 5 6 3 14 1 18 -5 5 -8 3 -9 -6 -4 -8 5 -11 4 -6 -3 9 -15 38 -3 29
12 -3 6 3 3 14 -7 14 -13 23 -15 28 -7 5 8 11 8 21 -1 12 -9 13 -9 9 2 -4 10
1 15 14 15 11 0 17 -5 14 -13 -4 -9 0 -11 11 -7 9 3 14 10 11 14 -3 5 4 6 15
3 11 -3 18 -8 16 -12 -3 -4 6 -7 19 -7 13 0 21 4 19 8 -3 5 -10 5 -16 2 -6 -4
-8 -2 -4 4 4 7 17 8 36 2 19 -5 30 -5 30 1 0 6 7 6 19 -1 24 -12 34 -13 27 -1
-7 11 21 8 31 -4 4 -4 2 -5 -6 0 -10 6 -12 4 -6 -5 6 -10 10 -10 19 2 13 17
39 12 30 -5 -3 -7 0 -5 8 3 13 15 44 17 155 8 35 -3 50 -1 46 6 -4 6 3 3 14
-7 14 -13 23 -15 28 -7 5 8 10 8 20 0 10 -8 15 -8 21 1 5 8 3 9 -6 4 -8 -5
-11 -4 -6 3 4 6 13 9 21 6 8 -4 12 -11 9 -16 -4 -6 3 -5 15 1 16 9 21 9 21 0
0 -8 5 -7 17 2 15 12 16 12 8 -1 -8 -13 -7 -13 8 -1 11 9 17 10 17 2 0 -13 22
-10 32 4 5 6 8 6 8 -2 0 -7 11 -10 28 -9 15 2 35 -1 46 -6 14 -8 17 -7 11 3
-6 9 -3 11 9 6 10 -4 36 -7 57 -7 24 0 38 -4 34 -10 -3 -6 -2 -10 4 -10 5 0
12 6 14 13 4 10 6 10 6 0 1 -7 12 -13 26 -13 14 0 25 -5 25 -11 0 -5 5 -7 12
-3 7 4 8 3 4 -5 -4 -6 -11 -9 -16 -6 -5 3 -12 0 -16 -6 -4 -8 -3 -9 4 -5 7 4
12 2 12 -4 0 -6 4 -9 9 -5 5 3 13 1 16 -5 4 -6 1 -9 -7 -8 -7 2 -12 -2 -11 -7
1 -6 -7 -11 -18 -11 -19 0 -20 1 -2 14 12 10 13 13 3 10 -8 -3 -20 -15 -26
-27 -8 -16 -13 -19 -17 -9 -3 7 -6 2 -6 -12 -1 -19 -3 -22 -11 -10 -8 12 -10
12 -15 -2 -4 -10 -16 -15 -31 -13 -21 2 -22 0 -12 -13 9 -11 9 -14 1 -9 -6 4
-14 3 -18 -3 -4 -6 -11 -8 -16 -5 -5 3 -6 -2 -2 -11 5 -14 2 -16 -15 -12 -13
4 -20 2 -19 -6 1 -6 -4 -10 -11 -8 -8 1 -11 -2 -7 -8 3 -5 1 -10 -4 -10 -6 0
-10 -5 -8 -11 1 -6 -4 -14 -12 -17 -9 -3 -11 0 -6 8 5 8 4 11 -3 7 -5 -4 -9
-15 -8 -25 2 -9 -9 -28 -23 -41 -14 -13 -20 -20 -12 -16 9 6 12 4 7 -3 -4 -7
-13 -12 -21 -12 -8 0 -17 -4 -20 -10 -4 -6 1 -7 12 -3 15 6 16 4 6 -8 -7 -9
-13 -30 -15 -47 -1 -18 -8 -32 -14 -32 -7 0 -10 -9 -7 -22 4 -19 3 -20 -6 -8
-7 9 -11 10 -11 3 0 -6 5 -15 10 -18 6 -4 7 -12 3 -18 -4 -7 -6 -20 -5 -29 2
-10 -2 -18 -8 -18 -6 0 -8 5 -4 12 4 7 3 8 -5 4 -6 -4 -9 -11 -6 -16 3 -5 1
-11 -4 -15 -6 -3 -7 -13 -4 -22 5 -14 9 -13 25 7 10 12 18 18 18 12 0 -5 -7
-15 -15 -22 -8 -7 -12 -16 -9 -21 3 -5 -2 -6 -10 -3 -16 6 -17 -19 -1 -33 4
-4 5 -2 0 6 -5 10 -4 12 4 7 14 -9 5 -26 -15 -26 -14 0 -13 -2 0 -16 18 -17
21 -28 6 -19 -14 9 -12 -8 3 -24 7 -9 7 -11 1 -8 -15 9 -27 -20 -12 -29 7 -5
8 -2 3 6 -5 8 -4 11 3 6 15 -9 3 -38 -12 -29 -8 4 -8 2 1 -7 8 -8 9 -20 3 -36
-8 -19 -6 -24 7 -24 14 0 14 -2 -3 -15 -11 -9 -14 -14 -6 -15 9 0 10 -5 4 -17
-7 -12 -5 -25 6 -42 14 -22 14 -24 1 -14 -12 10 -15 8 -15 -8 0 -10 4 -19 9
-19 6 0 6 -5 1 -12 -10 -14 -11 -38 -3 -53 3 -5 4 -16 3 -22 -1 -7 -2 -17 -3
-23 0 -5 -9 -7 -18 -4 -17 5 -17 5 0 -6 9 -6 23 -8 30 -4 6 4 3 -3 -8 -16 -14
-16 -16 -24 -7 -27 6 -3 9 -9 6 -14 -11 -18 -11 -59 -1 -59 7 0 7 -4 -1 -12
-8 -8 -8 -17 -1 -31 8 -14 8 -18 0 -13 -6 4 -11 2 -11 -3 0 -6 4 -11 8 -11 5
0 9 -7 9 -15 0 -8 -4 -12 -9 -9 -4 3 -8 1 -8 -5 0 -5 6 -11 13 -14 9 -3 9 -7
-2 -20 -10 -13 -10 -17 -1 -17 10 0 10 -3 1 -14 -8 -10 -9 -16 -1 -21 5 -3 10
-11 10 -16 0 -6 -4 -8 -8 -5 -4 2 -8 -4 -8 -15 0 -10 4 -19 9 -19 5 0 4 -7 -3
-15 -9 -10 -9 -15 -1 -15 6 0 11 -5 11 -11 0 -5 -4 -8 -8 -5 -5 3 -9 -1 -9 -9
0 -8 4 -12 9 -9 4 3 8 -2 8 -11 0 -9 -4 -14 -8 -11 -5 3 -9 -1 -9 -9 0 -8 4
-12 9 -9 10 6 6 -26 -6 -45 -6 -9 -5 -12 2 -7 12 7 11 -32 -3 -53 -5 -9 -4
-12 2 -8 5 4 10 -6 10 -23 0 -18 -4 -27 -11 -23 -6 4 -5 -1 3 -10 7 -9 10 -17
6 -17 -5 0 -1 -8 8 -18 14 -15 15 -19 2 -19 -8 0 -11 5 -8 10 3 6 1 7 -6 3 -9
-6 -9 -11 0 -23 10 -12 10 -16 -2 -24 -10 -6 -11 -9 -1 -9 7 0 11 -4 7 -9 -3
-5 3 -17 12 -27 17 -17 17 -18 -1 -11 -13 5 -17 3 -13 -7 3 -7 0 -19 -6 -26
-9 -10 -9 -12 3 -8 10 4 15 -1 15 -17 0 -13 -3 -21 -6 -19 -4 2 -10 -3 -13
-12 -3 -8 -2 -13 2 -10 10 6 10 -80 0 -89 -4 -4 -1 -16 5 -26 10 -16 9 -21 -3
-29 -8 -5 -10 -10 -5 -10 6 0 17 6 24 13 10 10 11 9 6 -5 -4 -10 -12 -18 -18
-18 -6 0 -2 -7 9 -16 13 -11 14 -14 4 -11 -13 4 -16 -4 -14 -39 1 -28 -2 -44
-9 -44 -8 0 -7 -4 2 -9 7 -5 10 -14 6 -21 -6 -9 -2 -9 16 1 21 11 22 10 12 -3
-7 -8 -9 -19 -5 -23 4 -5 1 -5 -5 -1 -8 5 -13 1 -14 -11 -1 -10 -2 -25 -3 -33
-1 -8 5 -23 13 -33 13 -15 13 -17 0 -12 -11 4 -14 -5 -13 -45 1 -28 5 -54 9
-58 5 -4 5 0 0 8 -7 13 -6 13 6 1 11 -10 11 -15 2 -18 -7 -3 -13 -9 -13 -14 0
-6 4 -8 8 -5 4 2 8 -4 8 -14 0 -13 -4 -16 -11 -10 -8 6 -10 -3 -9 -32 1 -22 8
-44 15 -49 12 -7 12 -9 0 -9 -9 0 -11 -7 -7 -22 4 -13 8 -27 9 -33 2 -5 7 -16
11 -24 6 -10 5 -12 -2 -7 -7 4 -19 3 -29 -2 -14 -8 -13 -11 7 -17 l23 -7 -24
-14 c-13 -7 -18 -13 -12 -14 9 0 12 -15 10 -44 -1 -25 0 -43 4 -40 4 2 9 -3
12 -11 4 -8 1 -12 -7 -9 -16 6 -16 -58 1 -69 18 -11 5 -37 -15 -30 -13 4 -12
2 3 -11 11 -10 14 -15 8 -11 -9 4 -11 1 -7 -10 5 -13 9 -13 22 -3 13 11 14 11
8 0 -4 -7 -18 -17 -30 -22 -15 -6 -16 -9 -5 -9 20 -1 32 -28 17 -37 -6 -4 -8
-3 -4 4 3 6 2 13 -3 16 -11 7 -9 -13 3 -32 4 -7 4 -11 -1 -10 -12 4 -15 -5 -8
-25 4 -9 2 -24 -4 -31 -7 -9 -8 -17 -2 -20 10 -6 9 -31 -1 -42 -4 -3 -1 -15 5
-25 10 -16 9 -21 -3 -29 -11 -7 -11 -10 -2 -10 7 0 10 -5 7 -10 -3 -5 -1 -10
5 -10 7 0 9 7 5 17 -5 15 -4 16 7 5 11 -11 10 -15 -3 -25 -12 -9 -15 -24 -12
-61 3 -33 1 -46 -6 -41 -6 3 -11 4 -11 0 0 -3 10 -10 23 -15 17 -7 18 -9 5 -9
-10 -1 -18 -6 -18 -12 0 -5 5 -7 11 -3 8 4 8 1 2 -12 -6 -11 -8 -40 -7 -66 3
-33 0 -48 -9 -48 -8 0 -7 -4 3 -10 8 -5 11 -10 6 -10 -4 0 0 -12 10 -27 17
-27 17 -28 -1 -13 -17 13 -18 13 -13 -1 4 -9 1 -22 -5 -29 -9 -10 -8 -12 5 -7
12 4 15 2 11 -9 -3 -7 -10 -14 -17 -14 -6 0 -4 -5 4 -10 8 -5 11 -10 6 -10 -5
0 -3 -6 3 -14 10 -11 8 -17 -6 -25 -10 -6 -13 -11 -6 -11 13 0 12 -18 -1 -39
-7 -10 -6 -12 4 -6 10 6 12 4 7 -7 -3 -9 -1 -20 5 -26 6 -6 6 -12 -3 -17 -8
-6 -10 -4 -4 6 5 8 4 10 0 6 -12 -11 -15 -38 -4 -31 11 6 7 -25 -5 -45 -6 -9
-5 -12 2 -7 12 7 11 -32 -1 -51 -4 -6 -2 -15 4 -19 8 -4 7 -9 -2 -15 -10 -6
-11 -9 -1 -9 6 0 12 -5 12 -11 0 -5 -5 -7 -10 -4 -6 4 -6 -3 1 -18 8 -18 8
-30 -1 -47 -11 -20 -10 -22 4 -17 14 6 14 3 -1 -20 -10 -15 -12 -24 -5 -20 8
5 12 2 12 -8 0 -10 -5 -13 -12 -9 -10 6 -10 4 0 -8 9 -12 10 -18 2 -23 -8 -5
-8 -10 0 -20 8 -10 8 -15 -1 -20 -8 -6 -8 -9 1 -15 9 -6 9 -13 1 -28 -8 -15
-8 -23 1 -28 7 -5 8 -3 3 6 -5 9 -4 11 3 6 9 -5 7 -15 -6 -34 -9 -14 -11 -23
-5 -19 9 5 13 2 13 -8 0 -10 -5 -13 -12 -9 -7 5 -8 3 -3 -7 12 -18 14 -69 3
-75 -5 -3 -4 -12 3 -20 6 -8 9 -17 6 -21 -4 -3 -2 -12 4 -19 7 -8 6 -14 -2
-20 -8 -5 -9 -3 -4 6 6 9 4 11 -4 5 -9 -5 -10 -10 -2 -18 16 -16 14 -50 -1
-41 -7 4 -5 -1 4 -12 14 -16 15 -23 6 -32 -9 -9 -9 -12 0 -12 6 0 9 -7 6 -15
-4 -8 -10 -12 -15 -9 -5 3 -9 0 -9 -5 0 -6 7 -11 16 -11 13 0 14 -3 5 -14 -16
-19 4 -60 22 -49 8 4 7 1 -1 -10 -8 -9 -10 -22 -6 -29 6 -10 5 -11 -7 -1 -12
10 -15 8 -15 -6 0 -11 6 -17 13 -14 9 4 11 0 7 -11 -3 -9 -10 -13 -15 -10 -5
3 -9 0 -9 -5 0 -15 23 -14 40 2 8 6 4 -1 -10 -17 -14 -16 -19 -26 -12 -22 12
7 16 -4 13 -31 -1 -7 3 -22 9 -32 5 -11 6 -22 2 -25 -10 -6 -9 -43 3 -68 4
-10 11 -16 15 -13 4 3 11 -2 14 -11 5 -12 2 -15 -11 -10 -15 6 -15 4 2 -14 10
-11 14 -20 9 -20 -5 0 2 -7 14 -16 12 -8 22 -20 22 -26 0 -7 -7 -3 -16 8 -14
18 -15 18 -4 -4 6 -13 18 -26 26 -29 7 -3 11 -9 8 -14 -5 -8 9 -13 28 -10 4 0
10 -10 14 -24 4 -15 13 -25 24 -25 11 0 22 -5 26 -12 5 -7 2 -8 -7 -3 -8 5
-11 4 -6 -1 9 -9 13 -10 43 -13 8 0 12 -5 9 -11 -4 -6 6 -8 24 -6 19 2 28 -1
24 -7 -4 -6 0 -8 10 -4 11 4 17 1 17 -7 0 -8 9 -12 25 -11 14 2 25 -1 25 -7 0
-6 7 -4 17 3 14 12 16 12 8 0 -6 -11 -4 -13 8 -8 10 3 17 3 17 -1 0 -4 36 -7
80 -7 69 1 78 -1 67 -14 -10 -12 -9 -13 3 -6 8 6 18 10 23 11 4 1 8 2 10 4 9
7 36 7 31 -1 -3 -5 2 -9 10 -9 9 0 16 5 16 12 0 6 6 4 13 -7 11 -14 16 -15 22
-5 6 9 4 11 -5 5 -8 -5 -11 -4 -7 3 8 11 25 11 45 -1 7 -5 12 -3 12 5 0 9 3 9
10 -2 5 -8 10 -11 10 -6 0 5 7 3 15 -4 13 -11 14 -10 10 2 -5 11 1 15 22 14
15 -1 34 -5 41 -9 7 -5 12 -3 12 5 0 10 2 10 9 -1 6 -9 10 -10 16 -2 5 9 10 9
20 1 10 -8 14 -7 18 2 4 10 7 10 15 -1 6 -8 15 -10 23 -5 21 13 39 13 39 1 0
-8 3 -8 8 -2 11 16 38 11 34 -5 -3 -11 2 -10 16 3 15 14 21 15 25 5 4 -10 6
-10 6 1 1 11 4 11 16 1 10 -8 15 -9 15 -2 0 11 66 9 77 -2 3 -3 13 0 21 7 12
9 16 9 19 -1 3 -6 10 -9 16 -5 21 13 47 13 47 0 0 -7 3 -8 8 -2 10 14 225 14
234 1 5 -7 8 -7 8 -1 0 14 160 14 160 1 0 -8 3 -8 8 -1 10 14 163 14 154 0 -3
-5 1 -4 10 3 11 9 18 10 23 2 3 -6 11 -8 16 -5 18 12 49 14 49 4 0 -6 6 -7 13
-2 19 12 40 13 53 2 7 -6 15 -6 18 -1 6 10 46 10 63 -1 6 -4 14 -4 17 1 3 5
29 8 58 7 40 -1 52 -5 50 -16 -2 -11 0 -11 10 2 14 17 54 19 77 5 9 -6 12 -5
8 1 -4 6 8 9 28 9 19 -1 35 -5 35 -9 0 -5 6 -5 13 0 19 12 40 13 53 2 8 -7 15
-6 19 2 6 8 10 7 16 -2 5 -8 9 -9 9 -4 0 6 9 11 20 12 11 1 20 -2 20 -6 0 -4
7 -8 15 -8 8 0 12 3 10 7 -2 4 11 6 30 6 19 -1 35 -5 35 -9 0 -5 6 -5 12 0 21
12 68 12 68 0 0 -7 4 -6 10 3 9 13 10 13 10 0 0 -9 3 -11 8 -5 11 16 46 19 36
3 -6 -10 -4 -10 7 -2 16 12 29 12 46 1 6 -4 14 -4 17 1 6 10 267 9 284 -1 6
-5 12 -4 12 2 0 10 32 7 52 -5 7 -4 8 -3 4 4 -4 7 -3 12 3 12 5 0 13 -5 16
-10 5 -8 11 -8 19 -1 9 7 16 7 24 -1 7 -7 12 -8 12 -2 0 5 19 9 43 9 30 -1 41
-6 39 -16 -1 -8 4 -6 13 5 8 11 15 14 15 7 0 -7 4 -9 10 -6 19 12 50 14 50 3
0 -7 4 -7 13 1 10 8 17 7 25 -1 9 -9 12 -9 12 1 0 11 3 11 17 0 13 -11 15 -11
9 -1 -6 9 -3 12 10 10 11 -2 22 -7 26 -12 4 -6 13 -4 22 3 11 9 16 10 16 2 0
-6 5 -11 11 -11 5 0 8 4 5 8 -2 4 9 8 25 7 16 0 29 -4 29 -9 0 -5 7 -3 15 4
12 10 15 9 16 -6 0 -18 1 -18 9 1 5 11 9 14 9 6 1 -10 4 -11 15 -2 10 8 16 9
21 1 3 -6 12 -7 18 -3 17 11 38 13 32 3 -3 -4 2 -10 10 -13 8 -4 12 -1 9 6 -6
17 89 16 110 -2 9 -8 19 -11 23 -7 3 3 1 6 -5 6 -7 0 -12 3 -12 8 0 9 61 9 78
-1 7 -5 12 -3 12 3 0 6 5 8 10 5 6 -4 8 -10 6 -14 -3 -4 1 -8 8 -8 8 0 12 5
10 12 -6 14 34 12 63 -3 20 -11 22 -10 16 5 -6 15 -4 16 9 6 8 -7 18 -10 22
-6 10 11 39 13 51 4 5 -4 18 -11 27 -14 13 -5 15 -2 11 11 -6 14 -4 15 8 5 11
-9 19 -9 26 -2 8 8 13 8 17 0 4 -6 12 -11 17 -11 6 0 7 6 3 13 -6 9 -4 9 7 1
8 -6 22 -14 31 -17 13 -5 15 -2 11 11 -6 14 -4 15 9 5 8 -7 18 -10 22 -6 10
11 39 13 51 4 5 -4 18 -11 27 -14 13 -5 15 -2 11 11 -6 14 -4 15 9 4 12 -9 18
-10 23 -2 5 8 13 6 26 -6 19 -17 20 -17 13 0 -6 16 -5 17 15 4 18 -11 23 -11
31 2 9 13 10 13 10 0 0 -13 1 -13 10 0 8 13 11 12 25 -5 15 -20 15 -20 8 0 -6
18 -5 18 10 6 13 -10 17 -10 17 -1 0 9 4 9 17 -1 10 -8 14 -9 10 -2 -6 9 4 11
33 10 22 -2 40 1 40 6 0 5 7 6 16 3 9 -4 23 -1 30 5 8 6 21 8 30 5 12 -5 15
-2 10 10 -5 14 -4 15 9 4 12 -10 15 -10 15 0 0 8 10 11 29 8 21 -3 28 0 27 11
-1 10 6 15 18 13 13 -3 17 1 13 11 -4 11 0 13 14 10 13 -4 19 -1 17 8 -2 8 3
13 10 11 6 -1 12 5 12 13 0 9 6 12 15 8 9 -3 15 -2 14 3 -4 23 2 36 15 31 9
-4 12 2 10 19 -1 13 2 22 7 18 5 -3 9 0 9 6 0 6 5 8 12 4 6 -4 8 -3 4 4 -3 6
-2 13 3 16 5 3 7 15 4 26 -3 11 -10 17 -16 13 -6 -3 -7 -1 -3 6 6 9 11 9 21 1
10 -8 15 -8 21 1 4 8 3 9 -4 5 -17 -11 -15 9 3 24 12 10 13 16 3 28 -11 14
-10 15 7 8 11 -4 16 -4 13 0 -4 3 -1 19 8 35 8 17 10 29 4 29 -5 0 -10 5 -10
11 0 5 5 7 11 3 8 -4 8 0 0 15 -8 14 -8 21 -1 21 7 0 7 7 -1 21 -8 16 -8 20 0
14 8 -4 10 3 6 24 -4 21 -1 31 7 31 9 0 8 3 -2 10 -12 8 -12 10 5 10 18 1 18
2 -2 10 -13 5 -23 12 -23 15 0 4 5 3 12 -1 8 -5 9 -1 5 12 -7 19 -7 19 8 0 8
-11 17 -17 20 -15 3 3 -4 15 -15 27 -12 12 -18 22 -14 22 3 0 0 8 -7 17 -9 11
-10 14 -2 9 7 -4 21 -2 30 4 17 11 17 11 1 6 -10 -3 -18 -1 -18 4 0 6 5 10 11
10 5 0 7 5 4 10 -4 6 -12 7 -18 4 -8 -5 -8 -3 1 7 6 7 12 20 12 29 0 11 -2 12
-9 2 -5 -8 -7 0 -7 22 1 19 4 32 9 29 4 -2 5 -8 2 -13 -3 -4 3 -14 12 -21 15
-12 16 -12 8 1 -16 26 -18 63 -3 54 10 -6 10 -4 2 7 -6 8 -11 30 -13 49 -1 19
-7 38 -14 42 -7 4 -8 8 -3 8 5 0 2 8 -5 18 -10 13 -8 12 11 -3 l24 -20 -17 27
c-11 18 -13 29 -6 33 6 5 5 15 -6 31 -8 13 -12 24 -8 23 18 -3 33 2 33 11 0 5
-6 8 -12 6 -7 -1 -10 -1 -6 1 5 3 5 15 2 29 -4 17 -1 26 10 30 12 5 14 10 6
19 -8 9 -8 15 0 18 6 3 5 4 -2 3 -7 -2 -12 -10 -10 -20 2 -10 -4 -16 -15 -16
-10 0 -14 3 -8 8 6 4 10 17 9 30 -1 14 3 21 10 19 7 -3 12 8 11 32 0 27 4 35
15 33 8 -2 11 0 7 5 -5 4 -12 8 -15 8 -14 0 -32 17 -32 28 0 7 4 6 10 -3 8
-13 10 -13 10 2 0 9 -6 18 -12 21 -7 2 -10 8 -6 12 4 4 16 2 25 -6 16 -13 17
-12 5 3 -7 9 -12 22 -11 30 3 26 -1 39 -12 32 -6 -3 -4 5 5 19 15 22 15 26 2
40 -8 8 -13 25 -11 38 3 12 -1 29 -7 36 -6 8 -7 13 -2 12 19 -3 34 1 34 11 0
5 -8 7 -17 4 -14 -5 -15 -4 -4 4 11 8 11 14 0 33 -11 21 -10 23 3 11 13 -11
15 -8 12 18 -2 19 0 29 6 25 16 -10 11 1 -7 16 -15 12 -16 12 -8 -1 8 -13 7
-13 -8 -1 -18 14 -24 26 -8 17 4 -3 17 1 27 10 18 14 18 15 -6 9 -24 -6 -24
-5 -6 9 15 12 16 16 5 16 -9 0 -15 9 -15 24 0 14 4 22 8 20 5 -3 6 -9 3 -14
-3 -5 0 -12 7 -16 7 -4 10 -4 6 1 -4 4 -2 15 5 23 9 13 9 14 0 8 -9 -5 -13 0
-13 14 0 12 4 19 8 16 5 -3 9 1 9 9 0 8 -3 13 -6 11 -3 -2 -12 2 -19 10 -10
12 -10 14 2 14 8 0 18 5 22 12 4 7 3 8 -4 4 -7 -4 -12 -1 -12 9 0 10 5 13 12
9 7 -5 8 -3 2 7 -13 21 -14 42 -4 54 7 8 5 12 -5 12 -8 0 -11 -5 -8 -11 4 -6
-1 -5 -10 3 -18 14 -22 22 -9 20 22 -4 31 3 25 18 -5 12 -3 14 7 8 9 -5 11 -4
6 3 -4 7 -13 12 -20 12 -18 0 -14 69 5 81 12 7 7 12 -11 11 -3 0 -6 8 -6 18 0
14 3 16 13 8 18 -15 16 -3 -3 16 -8 9 -11 16 -5 16 6 0 11 5 11 11 0 5 -5 7
-10 4 -6 -3 -10 -1 -10 4 0 6 5 11 10 11 6 0 10 5 10 11 0 5 -6 7 -12 3 -10
-6 -10 -4 0 7 17 19 15 29 -5 23 -14 -5 -15 -4 -4 4 8 6 21 8 30 5 11 -4 9 0
-4 10 l-20 16 20 1 c11 0 16 4 10 8 -14 10 -12 47 3 48 6 1 17 2 23 3 5 0 7 5
4 11 -11 17 7 11 21 -7 12 -15 13 -15 8 -2 -4 13 1 17 21 16 23 0 24 -1 8 -12
-15 -12 -14 -13 12 -8 23 3 27 2 15 -6 -12 -9 -11 -11 8 -11 12 0 23 -4 23
-10 1 -5 2 -16 3 -22 1 -7 7 -12 14 -10 7 1 12 -3 12 -9 0 -5 5 -7 12 -3 8 5
9 0 6 -14 -4 -12 -3 -20 1 -18 4 3 14 -4 21 -15 8 -10 24 -19 35 -19 16 0 17
-2 5 -10 -12 -8 -11 -10 8 -10 12 0 22 -4 22 -10 0 -5 10 -14 21 -21 15 -7 19
-8 15 0 -5 7 -1 9 8 5 9 -3 13 -11 10 -16 -4 -6 2 -8 15 -3 12 3 21 3 20 -2
-4 -22 2 -25 16 -7 15 19 15 19 8 0 -5 -15 -3 -18 10 -13 10 4 17 1 17 -6 0
-8 4 -6 10 3 8 13 10 12 10 -2 0 -10 5 -18 11 -18 5 0 7 5 3 11 -5 8 -1 8 14
0 15 -8 22 -8 25 2 3 7 6 4 6 -6 1 -14 5 -16 20 -8 10 6 21 7 25 4 3 -3 16 -7
29 -9 12 -1 22 -3 22 -4 0 -1 10 -3 23 -4 12 -2 22 1 22 6 0 5 5 6 12 2 17
-11 91 -11 106 0 9 6 11 4 6 -9 -6 -15 -4 -16 14 -6 17 9 22 9 22 0 0 -8 4 -8
15 1 11 9 15 9 15 1 0 -8 5 -9 19 -1 14 7 22 7 26 0 5 -8 12 -7 23 2 9 7 13 8
9 2 -4 -7 24 -10 91 -9 75 1 102 -2 117 -14 18 -14 18 -14 8 0 -11 13 -7 15
27 15 21 0 37 -3 35 -6 -2 -3 7 -5 20 -5 13 0 21 3 19 6 -2 3 10 6 25 5 16 -1
27 -4 24 -8 -2 -5 3 -8 11 -8 9 0 16 6 16 13 0 8 4 7 10 -3 5 -8 10 -10 10 -4
0 6 7 11 15 11 8 0 12 -4 10 -8 -3 -4 2 -9 10 -12 9 -4 12 -1 9 7 -3 7 2 13
10 13 8 0 13 -4 10 -8 -2 -4 0 -10 6 -14 5 -3 10 1 10 10 0 12 5 15 16 11 9
-3 18 -6 20 -6 3 0 2 -4 -1 -10 -7 -11 23 -2 43 13 9 7 11 5 6 -9 -5 -17 -5
-18 8 -2 13 15 15 15 27 0 11 -15 11 -15 6 3 -5 20 -5 20 10 1 8 -11 15 -15
15 -9 0 8 10 9 32 3 21 -7 36 -6 45 1 10 9 13 8 13 -2 0 -12 2 -12 9 0 6 9 11
10 15 2 5 -7 13 -8 25 -1 10 5 21 6 25 3 4 -4 14 -8 22 -9 11 -2 14 3 10 14
-5 15 -5 15 7 0 11 -13 16 -15 25 -6 9 9 12 9 12 -2 0 -12 2 -13 9 -1 6 9 11
10 15 2 4 -7 15 -7 31 -1 16 6 27 6 31 -1 4 -7 10 -7 18 0 7 6 16 8 20 4 11
-12 156 -10 156 2 0 7 3 7 8 0 4 -7 60 -10 142 -10 74 1 141 -3 148 -8 7 -6
12 -6 12 0 0 5 34 7 76 6 51 -3 74 0 69 7 -3 5 -4 10 0 10 3 0 10 -10 15 -22
7 -18 9 -19 9 -5 1 15 5 16 21 7 15 -8 20 -8 20 2 0 9 3 9 10 -2 9 -13 10 -13
11 0 0 10 3 8 9 -5 7 -16 9 -17 9 -3 1 9 5 20 11 23 6 3 7 -1 4 -9 -3 -9 -2
-16 4 -16 6 0 12 4 14 9 2 5 15 7 30 4 17 -3 25 -10 21 -17 -3 -6 0 -6 8 2 7
6 22 12 34 12 12 0 27 -6 34 -12 11 -10 13 -10 7 -1 -4 7 -4 13 1 14 4 0 18 2
31 3 13 2 26 -2 29 -7 4 -6 1 -7 -7 -2 -8 5 -11 4 -6 -3 4 -6 13 -9 21 -6 8 4
13 9 10 13 -6 10 33 7 42 -4 5 -4 2 -5 -6 0 -9 5 -12 4 -7 -3 9 -15 38 -3 29
12 -3 6 4 2 17 -9 13 -11 20 -14 16 -8 -10 17 26 17 43 1 8 -8 11 -8 8 -2 -4
7 3 12 18 12 14 0 22 -4 19 -9 -2 -4 8 -2 23 6 17 9 31 11 38 5 7 -6 15 -6 22
1 7 7 13 8 17 0 4 -5 14 -7 23 -4 11 4 14 3 9 -5 -5 -8 -2 -10 8 -6 9 3 13 10
10 15 -3 5 2 6 10 3 9 -3 13 -11 9 -18 -5 -7 -2 -7 8 1 9 7 20 8 29 3 9 -6 19
-3 28 8 13 16 13 16 8 -1 -5 -14 -2 -16 13 -8 12 7 21 7 28 0 8 -8 17 -7 32 0
16 9 21 9 21 -1 1 -8 7 -5 15 6 15 20 15 20 15 0 0 -16 2 -17 10 -4 8 12 10
12 10 1 0 -11 3 -11 15 -1 12 10 15 10 15 0 0 -10 3 -10 15 0 12 10 15 10 15
0 0 -10 4 -10 16 1 13 10 17 10 25 -2 8 -12 10 -12 19 1 9 13 11 13 20 0 9
-13 10 -13 10 0 0 9 3 11 8 5 9 -14 45 -14 54 0 5 7 8 7 8 0 0 -12 92 -12 125
0 15 5 16 4 6 -3 -11 -8 -7 -10 15 -9 16 1 32 6 37 12 4 7 10 7 15 0 4 -5 16
-12 26 -13 18 -3 18 -2 6 15 -14 17 -14 17 5 1 15 -12 25 -14 38 -7 9 6 17 6
17 1 0 -5 10 -8 23 -6 12 1 26 3 30 3 5 1 5 7 2 14 -4 6 1 3 10 -8 14 -17 17
-18 25 -5 8 12 11 13 19 1 7 -11 9 -11 14 0 4 11 6 11 6 1 1 -8 6 -10 13 -6
17 11 58 11 58 1 0 -5 7 -4 15 3 10 8 15 9 15 2 0 -6 7 -9 15 -6 8 4 12 11 9
18 -3 6 1 3 9 -6 16 -21 32 -24 21 -5 -5 8 -2 8 9 -2 13 -10 17 -10 17 -1 0 9
4 9 17 -1 11 -10 14 -10 9 -2 -4 7 -3 13 3 13 5 0 12 -6 14 -12 4 -10 8 -9 16
2 7 9 14 11 19 5 13 -19 35 -17 28 2 -5 16 -4 16 6 3 14 -17 27 -19 46 -7 6 5
12 4 12 0 0 -10 61 -10 78 1 7 4 12 2 12 -4 0 -8 6 -8 20 0 11 6 20 7 20 2 0
-5 7 -9 15 -9 8 0 12 4 9 9 -3 4 0 8 5 8 6 0 11 -6 11 -12 0 -9 4 -8 10 2 5 8
10 10 10 4 0 -14 33 -14 43 0 5 8 9 8 15 0 8 -11 67 -13 78 -1 11 11 26 8 19
-3 -3 -6 1 -7 9 -4 9 3 14 9 11 13 -2 4 10 7 28 6 18 -1 38 3 46 9 11 8 13 8
8 -1 -4 -7 -1 -10 10 -9 9 2 19 8 21 14 2 6 10 8 19 5 11 -4 14 -2 9 5 -5 8
-2 10 8 6 9 -3 16 -1 16 5 0 6 5 11 11 11 5 0 7 -6 4 -13 -4 -6 0 -4 8 5 8 10
17 15 20 11 4 -3 7 -1 7 5 0 6 6 9 14 6 7 -3 27 9 44 25 20 21 32 27 35 18 3
-6 6 -2 6 10 1 25 35 48 54 37 8 -5 7 -2 -2 9 -12 15 -11 17 4 17 11 0 15 5
11 15 -3 9 2 20 13 27 11 7 17 18 13 26 -4 11 -1 13 8 7 10 -6 12 -4 7 8 -4
10 -2 16 5 14 6 -1 13 4 16 12 2 8 0 11 -6 7 -6 -4 -6 3 1 18 8 16 14 21 19
13 5 -7 8 -1 8 15 0 15 5 30 10 33 8 5 7 11 0 20 -13 16 -5 35 14 35 14 0 16
37 3 57 -4 6 -2 15 4 19 8 5 9 3 4 -7 -5 -8 -4 -11 0 -6 10 9 15 48 5 42 -4
-2 -7 3 -7 11 0 8 6 13 14 10 17 -7 12 16 -7 31 -12 10 -10 11 14 7 26 -4 27
-4 11 12 -12 12 -13 19 -5 24 8 5 9 16 5 30 -4 14 -3 20 3 16 9 -5 9 9 -1 79
-2 11 5 32 15 47 24 35 23 46 -3 17 l-20 -24 11 23 c6 13 9 30 6 39 -4 11 -2
13 9 9 8 -3 15 -1 15 4 0 6 -4 10 -10 10 -5 0 -10 7 -10 15 0 8 4 15 9 15 5 0
7 9 4 20 -4 16 -2 19 13 13 14 -5 13 -1 -5 14 -19 15 -21 22 -11 28 9 6 11 4
5 -5 -5 -8 -4 -11 2 -7 10 6 9 79 -1 95 -3 6 1 13 9 16 14 5 14 8 -1 31 -12
18 -13 25 -4 25 9 0 7 7 -5 20 -18 20 -18 21 3 27 17 4 19 7 8 18 -16 16 -9
78 8 68 6 -3 3 2 -6 13 -12 13 -14 24 -8 34 13 20 13 33 0 25 -6 -3 -10 -1
-10 4 0 6 8 11 18 11 16 1 16 1 -1 11 -13 8 -15 14 -7 29 12 23 13 33 2 26 -9
-5 -7 47 2 63 4 5 1 13 -4 16 -7 5 -5 12 7 22 10 8 13 12 6 9 -6 -4 -14 -2
-18 4 -3 5 -2 10 4 10 7 0 7 8 2 22 -6 16 -4 27 8 36 9 7 11 11 5 8 -15 -7
-27 21 -13 30 6 4 6 11 -2 20 -7 8 -7 14 -1 14 5 0 13 7 16 16 5 14 4 15 -9 4
-14 -11 -14 -10 -6 13 7 18 7 27 -2 31 -7 2 -4 5 6 5 17 1 17 2 2 17 -14 15
-14 19 0 40 14 21 13 24 -3 33 -12 8 -13 10 -3 11 11 0 9 4 -5 15 -19 15 -19
15 1 8 18 -6 19 -5 5 12 -14 17 -13 18 2 12 12 -4 15 -2 11 8 -3 8 -9 12 -14
9 -11 -6 0 25 15 45 8 11 8 13 -1 7 -11 -6 -15 0 -15 24 0 3 3 15 7 27 5 19 3
22 -12 17 -16 -5 -16 -4 -1 5 10 7 14 19 10 33 -4 16 -2 19 9 13 11 -7 12 -6
2 6 -7 8 -12 24 -12 34 0 11 -2 33 -4 48 -3 22 -1 27 11 22 12 -4 13 -3 3 9
-7 8 -10 20 -6 26 3 5 1 10 -6 10 -7 0 -4 7 7 16 10 8 14 13 7 10 -15 -8 -22
15 -11 37 5 9 5 17 0 17 -5 0 -9 6 -9 14 0 8 7 12 16 9 11 -3 10 0 -3 11 -11
9 -14 16 -8 16 10 0 10 5 2 20 -9 16 -8 20 7 20 15 0 15 2 -3 15 -11 8 -14 15
-6 15 6 0 12 5 12 11 0 5 -4 7 -10 4 -7 -4 -7 2 -1 18 6 14 7 28 4 31 -4 3 -7
19 -7 35 -1 21 3 27 14 23 12 -5 13 -3 4 9 -18 23 -26 51 -12 43 8 -5 9 -2 5
10 -4 10 -2 26 3 36 7 13 7 21 -1 25 -6 4 -8 13 -5 20 2 7 -1 18 -7 24 -8 8
-6 11 9 11 11 0 15 3 8 8 -13 9 -27 45 -15 38 5 -3 12 1 15 10 3 8 2 12 -4 9
-6 -3 -10 0 -10 9 0 8 -3 23 -6 33 -5 15 -4 16 5 3 9 -11 10 -5 6 28 -4 33 -2
41 8 36 7 -5 7 -1 -2 10 -13 15 -13 19 0 27 11 7 11 9 0 9 -7 0 -11 6 -8 14 3
8 3 17 -1 20 -10 10 -11 37 -1 30 12 -7 11 3 -3 29 -10 21 -10 21 7 7 17 -14
17 -13 8 5 -14 26 -14 78 1 87 8 6 7 8 -1 8 -7 0 -13 7 -13 16 0 9 5 12 13 8
7 -5 7 -1 -2 10 -13 15 -13 19 0 27 8 5 9 9 3 9 -6 0 -11 16 -11 35 0 20 4 32
10 28 6 -4 7 -1 1 8 -4 8 -9 24 -10 36 -1 18 2 21 13 12 11 -9 12 -8 7 5 -3 9
-11 16 -18 16 -6 0 -4 5 4 10 8 5 10 10 5 10 -6 0 -11 9 -11 21 0 19 1 19 13
3 19 -26 16 -2 -4 25 -9 14 -11 21 -5 17 7 -4 12 -3 12 3 0 5 -6 12 -12 14
-10 4 -10 6 0 6 6 1 12 6 12 12 0 5 -4 8 -8 5 -5 -3 -8 14 -7 37 2 23 -3 48
-9 56 -8 11 -8 13 2 7 7 -4 12 -2 12 4 0 6 5 8 12 4 7 -4 8 -3 4 5 -4 6 -13 8
-19 4 -7 -4 -5 2 3 12 9 11 10 16 3 11 -16 -9 -17 6 -2 21 8 8 8 13 0 17 -6 4
-11 12 -11 17 0 6 6 7 13 3 9 -6 9 -4 1 7 -15 20 -16 61 -1 52 7 -4 6 0 -2 10
-11 14 -11 20 0 34 8 9 9 14 3 10 -7 -4 -11 2 -11 18 0 15 4 22 11 18 6 -3 6
0 -1 8 -17 17 -17 51 0 68 7 9 7 11 1 8 -7 -4 -15 0 -18 9 -3 8 -2 12 3 9 5
-3 12 -1 16 5 3 5 1 10 -6 10 -8 0 -7 5 2 17 10 11 10 14 2 9 -8 -4 -13 -1
-13 8 0 9 6 16 13 16 8 0 7 4 -3 10 -13 9 -13 11 0 20 12 8 12 10 1 10 -11 0
-11 3 0 17 10 11 10 14 2 9 -17 -9 -17 6 0 23 9 11 9 13 0 7 -16 -9 -16 -1 -2
26 6 12 7 18 1 14 -5 -3 -13 1 -16 10 -3 9 -2 12 4 9 7 -4 9 3 6 19 -3 16 0
26 7 26 7 0 6 4 -3 10 -12 8 -13 11 -1 19 11 7 11 9 0 14 -12 4 -11 7 1 16 10
7 11 11 3 11 -7 0 -13 5 -13 11 0 5 5 7 11 3 6 -3 3 6 -7 22 -14 22 -15 26 -3
17 13 -10 16 -10 16 2 0 8 -5 15 -10 15 -5 0 -2 11 7 25 15 23 15 24 -1 18
-10 -3 -15 -3 -11 2 4 4 3 16 -3 26 -7 15 -6 17 5 13 17 -7 16 11 -4 46 -12
22 -11 24 2 13 12 -10 15 -10 15 2 0 8 -4 15 -9 15 -5 0 -6 6 -1 12 11 19 13
39 1 32 -12 -8 -6 29 7 38 6 5 5 8 -4 8 -11 0 -11 3 0 17 10 11 10 14 2 9 -17
-9 -17 6 0 23 10 11 10 13 0 7 -17 -9 -17 6 0 23 10 11 10 13 0 7 -17 -9 -17
6 0 23 7 9 7 11 1 8 -7 -4 -14 0 -17 8 -4 10 -1 12 11 8 14 -6 15 -4 5 8 -9
11 -9 19 -2 26 8 8 8 13 0 17 -6 4 -11 12 -11 17 0 6 5 7 10 4 6 -3 10 -2 10
4 0 5 -6 12 -12 14 -9 4 -9 6 1 6 11 1 10 5 -5 17 -10 8 -14 13 -7 10 6 -4 14
-2 18 4 3 5 1 10 -6 10 -8 0 -7 5 2 17 10 11 10 14 2 9 -7 -4 -13 -3 -13 1 0
5 6 15 13 22 9 11 9 13 0 7 -7 -4 -13 -3 -13 1 0 5 6 15 13 22 10 11 10 13 0
7 -7 -4 -13 -2 -13 3 0 6 6 11 13 11 9 0 9 2 -1 8 -9 7 -10 15 -3 35 7 17 7
28 1 32 -15 9 -12 27 3 19 10 -6 10 -4 0 7 -17 17 -17 32 0 23 9 -6 9 -4 0 7
-17 17 -17 32 0 23 9 -6 9 -4 1 7 -14 19 -16 61 -2 53 5 -4 2 6 -8 22 -11 15
-14 25 -7 21 6 -4 14 -3 18 3 3 5 1 10 -6 10 -8 0 -7 5 2 17 10 11 10 14 2 9
-8 -4 -13 -1 -13 9 0 10 5 13 13 9 9 -6 9 -5 0 7 -10 12 -10 18 0 29 9 10 9
11 0 6 -7 -4 -13 -2 -13 3 0 6 6 11 13 11 8 0 7 4 -3 10 -13 9 -13 11 0 20 10
6 11 10 3 10 -16 0 -15 82 1 92 7 5 7 8 -2 8 -7 0 -10 5 -7 10 4 6 2 17 -5 25
-9 10 -7 16 7 24 17 10 17 10 -2 11 -19 1 -19 1 -2 11 12 7 15 15 9 22 -12 17
-15 80 -2 72 6 -3 7 0 4 9 -3 9 -11 13 -16 10 -6 -4 -3 5 6 18 9 14 13 28 9
32 -5 4 -8 20 -9 35 0 15 -4 33 -9 40 -5 8 -4 12 1 8 5 -3 9 18 9 49 -1 37 -6
58 -15 64 -8 5 -11 12 -7 16 3 4 15 1 24 -7 17 -13 17 -13 0 7 -9 11 -14 24
-10 27 3 4 1 7 -4 7 -13 0 -11 39 2 61 7 11 5 11 -10 -1 -11 -9 -16 -10 -11
-2 4 7 2 12 -6 12 -7 1 -2 7 12 16 l25 15 -25 -7 c-20 -6 -23 -4 -14 7 9 12
11 33 4 42 -8 10 -6 37 3 37 5 0 7 3 4 6 -4 4 -13 1 -22 -6 -9 -8 -15 -8 -15
-2 0 6 5 14 11 18 8 5 7 10 -4 16 -13 7 -14 14 -6 35 8 23 8 24 -6 13 -20 -16
-19 -6 1 14 14 15 13 16 -6 16 -19 0 -20 1 -6 16 20 19 20 19 -1 35 -11 10
-14 10 -9 2 4 -7 2 -13 -3 -13 -14 0 -14 17 0 26 6 3 7 9 3 13 -5 3 -16 15
-24 26 -14 18 -14 19 2 7 12 -10 18 -10 24 -1 4 7 3 9 -3 6 -5 -3 -15 3 -23
13 -8 10 -17 17 -22 14 -12 -8 -10 10 4 24 9 9 9 12 0 12 -7 0 -12 7 -12 15 0
14 -13 20 -34 16 -5 -1 -5 4 1 11 12 15 -9 42 -23 30 -5 -4 -2 1 6 11 7 10 9
17 4 16 -20 -4 -35 2 -29 11 4 6 -1 7 -11 3 -12 -4 -15 -3 -10 5 4 7 1 12 -10
12 -13 0 -14 3 -5 14 10 12 8 14 -14 12 -14 -2 -28 1 -32 7 -4 6 -1 7 8 2 8
-4 5 1 -6 12 -17 17 -21 18 -26 5 -5 -13 -6 -13 -12 2 -4 9 -11 14 -17 11 -5
-3 -10 0 -10 7 0 9 -3 9 -10 -2 -6 -9 -10 -11 -10 -3 0 7 -7 10 -17 6 -13 -5
-15 -2 -10 13 7 19 7 19 -8 0 -13 -17 -19 -16 -17 5 1 3 -13 3 -30 1 -24 -4
-29 -2 -23 9 8 12 6 12 -8 0 -13 -10 -17 -10 -17 -1 0 10 -3 10 -14 1 -11 -9
-15 -9 -19 1 -4 10 -6 9 -6 -1 -1 -11 -5 -10 -17 5 -15 19 -16 19 -9 0 6 -20
6 -20 -16 0 -12 10 -19 13 -15 7 4 -7 3 -13 -3 -13 -5 0 -12 6 -14 13 -3 6 -6
3 -7 -8 l-1 -20 -9 20 c-5 11 -9 15 -9 10 -1 -10 -105 -10 -143 -1 -10 2 -18
-1 -18 -7 0 -8 -4 -7 -9 2 -7 11 -11 10 -20 -5 -6 -11 -11 -14 -11 -7 0 8 -26
11 -80 11 -57 0 -78 -3 -73 -12 4 -6 -1 -5 -11 3 -22 18 -60 23 -46 6 6 -7 3
-11 -10 -11 -10 0 -17 3 -14 7 2 3 -19 7 -47 8 -28 0 -55 3 -60 6 -5 4 -9 -2
-9 -12 0 -11 -3 -14 -8 -6 -8 13 -132 15 -149 1 -7 -6 -14 -5 -19 3 -5 8 -3
10 7 4 8 -5 11 -4 6 0 -12 14 -48 13 -54 -2 -4 -11 -8 -10 -20 4 -8 10 -12 12
-8 6 8 -17 -7 -17 -24 0 -12 10 -13 9 -7 -7 5 -16 4 -17 -9 -6 -8 7 -28 10
-45 8 -16 -2 -32 0 -35 6 -3 6 -3 1 -1 -12 2 -12 0 -20 -5 -16 -5 3 -9 11 -9
17 0 9 -24 11 -90 7 -57 -3 -90 -1 -90 5 0 6 -5 3 -10 -5 -6 -9 -10 -10 -10
-3 0 7 -9 9 -27 4 -16 -4 -43 -4 -60 0 -27 6 -33 4 -34 -10 0 -12 -2 -12 -9 4
-5 11 -9 16 -9 10 -1 -5 -19 -10 -41 -10 -22 0 -40 5 -40 10 0 6 -5 3 -10 -5
-5 -8 -10 -10 -10 -5 0 6 -27 10 -60 10 -33 0 -60 -4 -60 -10 0 -5 -5 -3 -10
5 -5 8 -10 11 -10 5 0 -6 -33 -10 -80 -10 -47 0 -80 4 -80 10 0 6 -5 3 -10 -5
-6 -9 -10 -10 -10 -3 0 7 -9 9 -27 4 -16 -4 -43 -4 -60 0 -27 5 -33 4 -33 -9
0 -13 -3 -12 -15 4 -14 19 -14 19 -15 -1 l-1 -20 -9 20 c-5 11 -9 16 -9 10 -1
-5 -21 -10 -46 -10 -25 0 -45 5 -45 10 0 6 -5 3 -10 -5 -9 -13 -10 -13 -10 0
0 13 -1 13 -10 0 -5 -8 -10 -10 -10 -4 0 5 -12 9 -27 8 -103 -9 -392 -1 -386
10 4 6 -4 2 -17 -9 -13 -11 -20 -14 -16 -7 6 9 -2 11 -33 7 -29 -3 -41 -1 -41
8 0 7 -3 8 -8 2 -10 -14 -65 -14 -74 -1 -5 7 -8 7 -8 -1 0 -15 -50 -13 -50 2
0 5 -4 4 -9 -4 -8 -13 -12 -13 -27 0 -11 9 -15 9 -10 2 4 -7 2 -13 -3 -13 -6
0 -11 6 -11 13 0 9 -2 9 -9 -1 -11 -17 -21 -17 -32 0 -5 7 -9 8 -9 2 0 -14
-102 -13 -112 1 -5 7 -8 7 -8 0 0 -6 -9 -11 -21 -12 -15 -1 -19 2 -14 14 5 16
4 16 -12 1 -23 -21 -34 -23 -44 -6 -7 10 -9 10 -9 -2 0 -13 -1 -13 -10 0 -5 8
-10 10 -10 3 0 -14 -17 -12 -50 7 -22 12 -24 11 -13 -2 10 -12 10 -15 -2 -15
-8 0 -15 4 -15 8 0 5 -11 4 -25 -1 -21 -8 -25 -6 -26 8 0 15 -1 15 -8 -1 -7
-20 -19 -21 -38 -6 -7 7 -13 5 -16 -3 -4 -10 -6 -10 -6 0 -1 6 -6 12 -12 12
-5 0 -7 -6 -3 -12 5 -8 1 -8 -10 1 -19 16 -58 23 -50 10 2 -4 0 -10 -6 -14 -5
-3 -10 -2 -10 3 0 6 -7 13 -16 16 -13 5 -14 3 -6 -6 8 -10 3 -13 -23 -13 -18
0 -31 3 -28 8 7 12 -12 8 -26 -5 -11 -11 -13 -10 -9 2 4 12 -1 16 -23 15 -15
0 -32 -5 -36 -9 -5 -5 -2 -6 6 -1 10 6 12 4 7 -4 -6 -9 -11 -9 -21 -1 -8 7
-41 13 -75 13 -47 2 -60 -1 -61 -13 0 -13 -1 -13 -7 0 -6 12 -29 15 -115 15
-60 0 -111 3 -114 7 -2 5 -10 5 -16 1 -18 -11 -90 -11 -104 0 -8 6 -13 6 -13
0 0 -5 -38 -9 -85 -8 -70 0 -84 -3 -80 -14 4 -11 0 -10 -14 3 -13 12 -20 14
-23 5 -2 -7 -12 -13 -21 -15 -9 -1 -14 2 -11 8 4 6 -3 5 -15 -1 -12 -7 -26 -9
-31 -6 -6 4 -13 0 -16 -9 -3 -8 -12 -12 -20 -9 -9 3 -21 -3 -30 -15 -9 -13
-22 -19 -35 -17 -12 3 -19 2 -16 -1 2 -3 -8 -19 -23 -36 -19 -20 -33 -28 -42
-22 -11 7 -11 5 0 -9 12 -14 11 -16 -7 -12 -12 2 -19 0 -16 -6 4 -5 3 -14 -1
-20 -4 -8 -9 -7 -15 2 -6 10 -9 7 -9 -11 0 -18 -3 -21 -9 -11 -7 11 -11 10
-20 -7 -7 -14 -18 -20 -34 -17 -20 4 -20 3 -5 -9 15 -11 14 -13 -12 -13 -17 0
-30 4 -30 8 0 4 -7 10 -16 13 -14 5 -15 4 -5 -8 10 -12 9 -14 -8 -9 -12 3 -18
10 -14 16 4 6 0 8 -10 4 -9 -3 -19 -1 -23 5 -4 7 -3 8 4 4 7 -4 12 -2 12 3 0
6 -4 11 -10 11 -5 0 -15 10 -21 23 l-12 22 23 -20 23 -20 -14 23 c-8 12 -18
22 -23 22 -4 0 -2 8 5 17 8 9 9 14 3 10 -8 -4 -11 2 -10 17 0 13 4 22 9 19 4
-2 7 1 7 6 0 6 -4 11 -8 11 -5 0 -9 13 -9 30 0 26 2 28 14 12 12 -16 12 -15 6
3 -3 11 -13 30 -21 43 -13 20 -13 22 0 17 9 -4 15 0 15 10 0 8 -3 15 -7 15 -3
0 -6 9 -6 19 0 11 4 17 8 15 4 -3 8 0 8 5 0 6 -4 11 -10 11 -5 0 -10 5 -10 11
0 5 4 8 8 5 4 -2 8 9 7 25 0 16 -4 29 -9 29 -5 0 -2 8 5 17 10 11 10 14 2 9
-10 -5 -11 -1 -4 17 6 16 6 28 -2 36 -8 8 -8 11 2 11 7 0 9 5 4 13 -4 6 -8 22
-8 34 -1 17 2 20 12 11 10 -8 12 -7 7 6 -3 9 -10 16 -15 16 -5 0 -9 5 -9 11 0
5 6 7 13 3 9 -6 9 -4 1 7 -12 16 -12 29 -1 47 5 7 4 12 -2 12 -6 0 -11 5 -11
11 0 5 4 8 8 5 4 -2 14 0 22 5 12 8 11 9 -5 7 -14 -2 -20 3 -20 17 0 26 14 46
29 38 6 -3 7 -2 3 3 -5 5 -14 9 -20 9 -5 0 -12 7 -15 15 -3 8 -1 12 3 8 8 -8
34 20 34 37 0 6 -4 2 -10 -7 -5 -10 -14 -18 -19 -18 -12 0 -7 25 9 44 12 14
12 16 -2 11 -8 -4 -18 -1 -23 6 -4 8 -3 10 4 5 13 -8 13 -7 18 74 2 39 0 50
-8 40 -8 -12 -9 -11 -4 3 3 10 6 21 6 23 0 3 6 2 13 -2 6 -4 4 2 -5 13 -20 22
-23 33 -7 33 5 0 8 -4 5 -8 -3 -5 1 -9 8 -9 9 0 10 6 2 23 -6 12 -13 21 -17
19 -3 -2 -6 2 -6 10 0 17 8 19 23 8 5 -5 -1 1 -13 12 -18 16 -20 24 -11 33 13
13 20 42 10 42 -4 0 -8 11 -8 25 -1 16 2 22 10 18 7 -4 7 -2 -1 8 -10 12 -10
18 -1 27 9 9 9 12 0 12 -16 0 -15 27 1 33 9 4 8 6 -2 6 -11 1 -11 4 0 18 8 9
9 14 2 10 -8 -5 -11 12 -9 63 2 66 -1 75 -27 71 -5 -1 -6 3 -2 8 3 6 12 8 20
5 10 -4 12 0 8 15 -3 12 -10 21 -15 21 -5 0 -6 5 -3 10 4 6 11 8 16 5 5 -4 9
-1 9 4 0 6 -5 11 -11 11 -5 0 -7 5 -3 12 4 7 3 8 -4 4 -12 -7 -14 2 -14 54 0
14 -5 28 -12 32 -7 5 -6 8 4 8 13 0 13 1 0 10 -13 9 -13 10 0 10 9 1 6 6 -10
16 -17 10 -19 13 -5 9 11 -3 16 -3 12 1 -4 4 -1 14 5 23 10 13 10 14 -1 4 -23
-20 -40 -5 -31 28 5 16 5 27 0 24 -5 -3 -12 0 -15 6 -4 5 -13 8 -21 5 -8 -3
-11 0 -7 11 3 8 1 18 -6 22 -7 4 -13 17 -14 29 0 11 -4 19 -8 16 -4 -2 -10 2
-12 8 -4 10 -8 9 -17 -2 -9 -12 -10 -11 -5 7 4 16 0 25 -15 33 -11 6 -18 16
-14 21 4 7 -1 7 -15 0 -11 -7 -22 -9 -22 -6 -1 3 -2 11 -3 18 -1 6 -9 11 -19
9 -12 -2 -15 2 -10 15 6 15 4 16 -9 5 -13 -10 -17 -10 -20 0 -4 10 -9 10 -23
-2 -17 -14 -18 -14 -5 10 12 22 12 24 -2 12 -11 -9 -18 -10 -23 -2 -3 5 -17 8
-30 6 -25 -5 -50 15 -37 30 4 4 0 3 -8 -3 -8 -6 -24 -8 -35 -6 -11 3 -28 5
-37 6 -10 1 -18 5 -18 9 0 5 -10 4 -21 -3 -15 -8 -19 -8 -15 0 5 7 -6 11 -33
11 -24 0 -41 5 -41 11 0 8 -4 8 -13 1 -8 -7 -18 -6 -31 3 -10 8 -25 11 -34 8
-10 -4 -13 -2 -8 5 10 16 -6 15 -23 0 -11 -10 -13 -10 -7 0 5 7 1 12 -11 13
-10 1 -33 2 -52 3 -19 1 -36 6 -38 11 -2 6 -21 10 -43 9 -22 0 -40 4 -40 9 0
5 -7 4 -15 -3 -12 -10 -16 -10 -20 1 -4 10 -24 14 -73 13 -37 0 -71 2 -77 6
-13 8 -27 7 -42 -3 -8 -5 -13 -3 -13 4 0 8 -4 8 -15 -1 -9 -7 -15 -8 -15 -2 0
12 -33 10 -42 -3 -5 -6 -8 -6 -8 1 0 7 -7 14 -14 17 -11 4 -13 1 -9 -11 6 -14
4 -15 -8 -5 -12 10 -18 10 -29 0 -10 -10 -12 -9 -7 6 4 9 2 17 -3 17 -6 0 -10
-4 -10 -9 0 -5 -7 -11 -14 -14 -10 -4 -13 -1 -9 10 5 13 3 13 -25 -1 -23 -12
-33 -13 -38 -4 -4 6 -3 8 4 4 6 -3 13 -2 16 3 9 14 -38 7 -53 -8 -12 -11 -17
-10 -28 5 -7 10 -13 12 -13 6 0 -10 -5 -10 -22 -1 -18 10 -20 9 -14 -6 6 -15
4 -16 -10 -4 -20 16 -54 19 -54 5 0 -6 -4 -5 -9 2 -6 11 -10 10 -15 -3 -5 -14
-9 -15 -22 -4 -18 15 -54 20 -54 7 0 -5 -6 -6 -12 -2 -18 11 -48 12 -48 2 0
-5 -6 -6 -12 -1 -17 10 -178 10 -171 1 2 -5 -1 -8 -7 -8 -6 0 -13 7 -17 16 -4
11 -8 12 -13 4 -7 -12 -28 -14 -73 -7 -20 3 -27 1 -23 -9 3 -8 0 -11 -9 -7 -8
3 -12 10 -8 17 4 6 0 6 -9 -2 -12 -9 -18 -10 -23 -2 -5 8 -11 6 -19 -6 -10
-13 -15 -14 -21 -4 -6 9 -4 11 5 5 8 -5 11 -4 7 2 -9 14 -42 10 -63 -8 -15
-11 -16 -11 -9 0 6 11 2 13 -19 7 -15 -4 -25 -3 -22 2 3 5 -1 9 -8 9 -8 0 -12
-7 -9 -16 4 -14 3 -14 -9 1 -13 15 -15 15 -26 0 -7 -9 -10 -11 -7 -4 3 6 0 12
-7 12 -8 0 -20 -6 -27 -12 -11 -10 -13 -10 -7 0 4 7 2 12 -6 13 -7 1 -20 2
-28 3 -8 0 -21 -6 -28 -14 -7 -8 -12 -10 -11 -5 3 22 -2 26 -16 11 -17 -17
-49 -11 -38 8 4 6 0 5 -9 -2 -14 -11 -18 -10 -26 4 -8 15 -9 15 -15 0 -5 -11
-3 -15 5 -10 7 5 8 3 3 -5 -5 -9 -10 -10 -18 -2 -15 15 -40 14 -31 -1 4 -7 -1
-5 -11 4 -17 16 -19 16 -30 1 -10 -13 -14 -13 -20 -3 -6 9 -4 11 5 5 8 -5 11
-4 7 2 -4 6 -18 8 -32 6 -15 -3 -22 -10 -18 -17 4 -6 -1 -5 -11 3 -25 20 -68
21 -61 1 3 -9 -1 -8 -10 4 -8 11 -15 14 -15 7 0 -7 -5 -9 -11 -5 -6 3 -15 0
-20 -7 -6 -10 -9 -11 -9 -1 0 6 -7 12 -15 12 -8 0 -15 -5 -15 -11 0 -5 -5 -7
-10 -4 -6 4 -8 9 -6 13 2 4 -9 7 -25 8 -16 1 -29 -3 -29 -8 0 -5 5 -6 12 -2 7
4 8 3 4 -4 -4 -6 -13 -9 -21 -6 -8 4 -13 10 -10 14 3 5 -4 6 -15 3 -11 -3 -17
-10 -14 -15 4 -6 -4 -3 -17 6 -14 8 -30 12 -37 7 -10 -6 -55 -7 -88 0 -23 4
-45 -2 -39 -11 3 -6 -1 -7 -9 -4 -9 3 -14 9 -12 13 3 4 -9 7 -25 6 -16 0 -29
-4 -29 -8 0 -5 -6 -5 -12 -1 -19 12 -48 12 -48 0 0 -6 -5 -4 -10 4 -6 9 -10
11 -10 3 0 -9 -7 -10 -22 -4 -13 4 -35 5 -50 0 -16 -4 -30 -3 -33 2 -8 12 -25
11 -25 -2 0 -5 5 -7 12 -3 7 5 8 3 3 -6 -6 -10 -11 -10 -20 4 -11 15 -13 15
-19 1 -5 -14 -8 -14 -31 1 -24 15 -25 15 -26 -2 0 -18 -1 -18 -9 1 -5 11 -9
14 -9 7 -1 -10 -6 -10 -23 -1 -18 10 -24 9 -32 -3 -8 -14 -12 -13 -29 6 -10
11 -16 16 -13 10 3 -7 -1 -17 -9 -24 -12 -10 -16 -9 -20 1 -6 15 -53 17 -75 4
-8 -5 -11 -4 -7 2 4 7 -5 10 -22 9 -16 0 -27 -5 -23 -10 3 -6 -3 -6 -14 -2
-31 13 -64 14 -64 3 0 -7 -4 -7 -12 1 -19 19 -32 14 -17 -5 12 -17 12 -17 -6
-1 -17 16 -19 16 -32 0 -10 -13 -13 -14 -11 -2 3 17 -38 15 -60 -2 -9 -8 -11
-7 -7 3 7 18 -36 24 -47 6 -6 -9 -8 -9 -8 1 0 6 -7 12 -15 12 -8 0 -15 -6 -15
-12 0 -9 -4 -8 -10 2 -8 12 -11 13 -19 1 -5 -8 -11 -9 -15 -3 -3 6 -15 8 -26
5 -11 -3 -27 0 -35 7 -13 11 -14 10 -8 -6 6 -16 4 -17 -8 -7 -12 10 -18 10
-29 0 -10 -9 -11 -9 -6 1 5 7 1 12 -9 12 -10 0 -13 -5 -9 -12 4 -7 3 -8 -5 -4
-6 4 -20 2 -29 -5 -14 -11 -15 -11 -4 1 17 19 15 35 -3 20 -8 -6 -23 -9 -36
-5 -16 6 -20 4 -13 -6 6 -11 5 -12 -8 -2 -8 7 -18 10 -22 6 -4 -4 -11 -1 -16
7 -6 8 -10 10 -10 5 0 -14 -35 -16 -67 -4 -21 8 -24 7 -19 -6 4 -12 2 -13 -12
-7 -9 5 -61 9 -115 8 -55 -1 -101 2 -103 6 -3 4 -16 3 -29 -2 -18 -7 -25 -6
-25 3 0 7 -3 8 -8 2 -8 -11 -92 -15 -92 -5 0 4 -7 7 -15 7 -8 0 -15 -4 -15 -9
0 -10 -23 -6 -31 6 -4 4 -15 3 -26 -2 -11 -6 -25 -7 -33 -2 -8 5 -21 5 -31 0
-9 -5 -19 -7 -22 -3 -11 10 -51 10 -66 -1 -11 -9 -13 -6 -7 14 6 19 5 21 -3
10 -10 -15 -66 -26 -57 -11 3 4 -1 8 -9 8 -8 0 -12 -4 -10 -8 3 -4 -2 -10 -11
-13 -8 -3 -13 -2 -10 3 3 5 -1 12 -10 15 -9 3 -12 2 -9 -5 4 -6 -3 -7 -21 -3
-19 5 -25 4 -20 -5 4 -6 2 -11 -3 -11 -6 0 -11 6 -11 13 0 8 -7 14 -15 14 -8
0 -11 -5 -8 -10 4 -6 -1 -8 -11 -4 -10 4 -20 7 -22 7 -3 0 -2 6 1 13 4 6 -1 3
-9 -7 -9 -11 -16 -14 -16 -8 0 7 -7 12 -15 12 -8 0 -15 -5 -15 -11 0 -7 -8 -6
-22 3 -24 16 -52 13 -42 -4 4 -6 -1 -6 -13 1 -14 7 -23 7 -30 0 -8 -8 -13 -7
-18 2 -6 8 -4 10 5 4 9 -5 11 -4 6 4 -6 9 -11 9 -22 0 -11 -9 -14 -8 -14 2 0
12 -2 12 -9 1 -4 -8 -12 -14 -16 -14 -4 0 -12 6 -16 14 -6 10 -9 8 -9 -7 0
-15 -2 -17 -9 -6 -5 7 -14 10 -20 7 -6 -4 -11 -3 -11 2 0 5 -7 9 -15 9 -8 0
-15 -4 -15 -9 0 -5 -6 -6 -12 -2 -18 11 -48 12 -54 2 -3 -4 -17 0 -32 10 -14
9 -23 11 -19 5 5 -9 2 -13 -8 -13 -9 0 -13 5 -10 10 10 16 -18 7 -33 -10 -9
-12 -12 -12 -10 -1 2 7 -3 16 -11 19 -9 3 -11 0 -6 -8 5 -9 3 -10 -11 -2 -11
5 -25 7 -33 4 -8 -3 -11 0 -7 7 5 7 1 9 -8 5 -9 -3 -13 -10 -10 -15 3 -5 -2
-6 -10 -3 -9 3 -13 11 -10 16 4 6 -3 5 -15 -1 -16 -9 -21 -9 -21 0 0 8 -5 8
-16 -2 -9 -7 -18 -9 -22 -3 -4 5 -50 9 -102 8 -52 0 -103 4 -114 9 -13 6 -16
6 -12 -2 4 -6 0 -11 -9 -11 -9 0 -13 5 -9 11 5 8 1 8 -14 0 -25 -13 -35 -14
-27 -2 3 5 0 13 -6 17 -7 4 -9 3 -5 -4 10 -17 -37 -19 -52 -2 -10 13 -11 12
-6 -4 6 -16 5 -17 -16 -6 -15 8 -20 8 -16 1 4 -6 3 -11 -3 -11 -5 0 -12 8 -14
18 -4 15 -5 15 -6 -2 -1 -17 -2 -17 -26 -2 -22 14 -26 15 -31 2 -3 -8 -12 -12
-20 -9 -8 3 -11 10 -7 17 4 6 -1 5 -11 -3 -15 -13 -19 -13 -27 0 -7 12 -9 12
-9 -1 0 -9 -8 -16 -19 -16 -13 0 -17 5 -13 16 4 11 -1 10 -18 -5 -13 -11 -20
-15 -17 -8 4 6 3 14 -3 18 -5 3 -10 -1 -10 -9 0 -10 -6 -13 -15 -10 -8 4 -12
11 -8 18 4 7 2 7 -8 -1 -12 -10 -18 -10 -29 0 -9 9 -11 9 -6 0 4 -8 -1 -11
-14 -10 -11 1 -20 5 -20 10 0 4 -5 5 -10 2 -6 -4 -8 -11 -5 -16 3 -5 -1 -6 -9
-3 -9 3 -13 11 -9 18 3 6 -2 3 -13 -6 -16 -14 -23 -15 -32 -6 -6 6 -21 12 -32
13 -16 1 -18 -1 -7 -13 10 -13 9 -14 -10 -3 -13 6 -23 9 -23 5 0 -3 -6 -1 -14
5 -11 9 -16 9 -21 0 -6 -8 -10 -7 -16 2 -5 8 -9 9 -9 3 0 -14 -33 -14 -42 0
-5 7 -8 4 -8 -6 0 -10 -4 -18 -10 -18 -5 0 -9 3 -9 8 4 21 -2 24 -14 7 -11
-14 -16 -15 -22 -5 -6 9 -4 11 5 5 9 -5 11 -4 6 3 -9 14 -7 14 -27 -1z m5311
-73 c0 -8 -19 -13 -24 -6 -3 5 1 9 9 9 8 0 15 -2 15 -3z m-6329 -921 c13 -16
12 -17 -3 -4 -10 7 -18 15 -18 17 0 8 8 3 21 -13z m-7 -235 c-4 -6 0 -15 7
-20 12 -8 11 -9 -1 -5 -8 2 -16 13 -16 25 -1 12 3 19 8 16 4 -3 5 -10 2 -16z
m6 -93 c11 -13 10 -14 -4 -9 -9 3 -16 10 -16 15 0 13 6 11 20 -6z m0 -355 c0
-5 -5 -10 -11 -10 -5 0 -7 5 -4 10 3 6 8 10 11 10 2 0 4 -4 4 -10z m-7 -335
c-7 -21 -12 -19 -10 4 0 11 5 18 9 15 4 -3 5 -11 1 -19z m11 -103 c3 -5 -1 -9
-9 -9 -8 0 -12 4 -9 9 3 4 7 8 9 8 2 0 6 -4 9 -8z m1 -242 c3 -5 1 -10 -4 -10
-6 0 -11 5 -11 10 0 6 2 10 4 10 3 0 8 -4 11 -10z m13350 -40 c-3 -5 -12 -10
-18 -10 -7 0 -6 4 3 10 19 12 23 12 15 0z m-13369 -68 c-17 -16 -18 -16 -5 5
7 12 15 20 18 17 3 -2 -3 -12 -13 -22z m13441 -347 c0 -8 -4 -12 -9 -9 -5 3
-6 10 -3 15 9 13 12 11 12 -6z m-10937 -29 c-7 -7 -13 -7 -20 0 -6 6 -3 10 10
10 13 0 16 -4 10 -10z m-2490 -130 c0 -2 -7 -7 -16 -10 -8 -3 -12 -2 -9 4 6
10 25 14 25 6z m13440 0 c0 -3 -4 -8 -10 -11 -5 -3 -10 -1 -10 4 0 6 5 11 10
11 6 0 10 -2 10 -4z m-13450 -466 c0 -5 -2 -10 -4 -10 -3 0 -8 5 -11 10 -3 6
-1 10 4 10 6 0 11 -4 11 -10z m17 -1536 c-3 -3 -12 -4 -19 -1 -8 3 -5 6 6 6
11 1 17 -2 13 -5z m8063 -260 c0 -9 -5 -12 -12 -8 -7 4 -8 3 -4 -4 4 -6 14 -8
24 -5 15 6 15 5 3 -10 -8 -10 -11 -20 -7 -24 3 -3 6 -1 6 5 0 7 3 12 8 12 4 0
7 -11 7 -24 0 -13 -3 -22 -7 -20 -4 2 -10 -1 -14 -8 -4 -7 -4 -10 1 -6 12 11
35 -11 28 -28 -3 -7 -10 -11 -15 -8 -6 4 -5 10 3 15 10 6 10 9 2 9 -16 0 -26
-17 -13 -25 6 -4 7 -11 4 -17 -4 -6 -2 -8 3 -5 6 4 14 0 17 -9 4 -10 2 -13 -6
-8 -7 5 -9 2 -5 -8 3 -9 0 -21 -6 -28 -8 -9 -8 -11 -1 -7 7 4 12 -3 12 -18 0
-14 -4 -22 -9 -20 -4 3 -11 0 -15 -6 -4 -8 -3 -9 4 -5 7 4 12 2 12 -4 0 -6 5
-8 13 -4 7 5 7 1 -2 -10 -12 -14 -12 -22 -3 -36 8 -13 8 -21 1 -26 -6 -3 -8
-12 -5 -20 3 -8 1 -14 -5 -14 -6 0 -8 -4 -5 -8 2 -4 0 -14 -5 -22 -7 -11 -8
-7 -5 12 4 25 3 27 -15 18 -10 -6 -19 -13 -19 -16 0 -3 4 -3 8 0 5 3 9 -1 9
-8 0 -7 -6 -13 -13 -13 -7 0 -12 5 -11 10 1 5 -4 12 -11 14 -8 3 -10 -1 -5
-13 6 -16 5 -17 -9 -4 -11 11 -12 17 -4 22 8 6 7 8 -2 8 -8 0 -10 5 -6 13 6
10 4 10 -7 0 -7 -7 -18 -13 -23 -13 -6 0 -4 5 4 10 13 8 12 10 -2 10 -16 0
-22 10 -20 30 0 3 -9 7 -21 7 -18 2 -19 0 -7 -8 13 -9 13 -10 0 -6 -9 2 -15
14 -14 29 1 26 -9 30 -34 14 -7 -4 -16 -5 -19 -2 -4 3 -2 6 4 6 5 0 10 6 10
14 0 8 -8 11 -19 8 -10 -2 -18 1 -18 7 0 7 -5 9 -12 5 -8 -5 -7 0 2 11 14 17
13 18 -2 12 -13 -4 -16 -1 -13 14 5 24 -12 25 -18 2 -4 -15 -5 -14 -6 3 0 11
-7 26 -13 33 -7 8 -8 11 -2 8 6 -3 18 3 27 13 10 12 23 17 34 14 11 -3 14 -2
8 3 -5 4 -11 14 -13 22 -3 12 -1 12 14 0 16 -12 17 -12 11 3 -4 13 -1 16 14
13 18 -4 19 -2 7 12 -12 15 -11 15 10 4 18 -10 22 -9 22 4 0 10 -5 13 -12 9
-7 -4 -10 -4 -6 0 3 4 10 8 15 7 4 0 18 9 29 20 16 15 24 17 29 8 6 -8 4 -10
-5 -4 -9 5 -11 4 -6 -4 13 -20 38 7 26 28 -6 13 -5 18 5 18 8 0 12 -4 9 -9 -3
-4 0 -8 5 -8 6 0 11 4 11 9 0 6 15 12 33 14 17 2 33 5 35 5 1 1 2 -5 2 -14z
m-260 -124 c0 -5 -5 -10 -11 -10 -5 0 -7 5 -4 10 3 6 8 10 11 10 2 0 4 -4 4
-10z m5630 -654 c0 -3 -4 -8 -10 -11 -5 -3 -10 -1 -10 4 0 6 5 11 10 11 6 0
10 -2 10 -4z m-10603 -511 c0 -8 -4 -12 -9 -9 -5 3 -6 10 -3 15 9 13 12 11 12
-6z m10 -891 c-3 -3 -12 -4 -19 -1 -8 3 -5 6 6 6 11 1 17 -2 13 -5z m10577
-230 c3 -8 2 -12 -4 -9 -6 3 -10 10 -10 16 0 14 7 11 14 -7z m-10571 -110 c-7
-3 -9 -13 -6 -22 4 -14 3 -14 -5 -2 -12 16 -7 30 11 29 9 0 9 -2 0 -5z m0
-188 c4 -10 1 -13 -8 -9 -8 3 -12 9 -9 14 7 12 11 11 17 -5z m7 -61 c0 -8 -2
-15 -4 -15 -2 0 -6 7 -10 15 -3 8 -1 15 4 15 6 0 10 -7 10 -15z m-10 -155 c0
-5 -2 -10 -4 -10 -3 0 -8 5 -11 10 -3 6 -1 10 4 10 6 0 11 -4 11 -10z m10505
-80 c-3 -5 -11 -10 -16 -10 -6 0 -7 5 -4 10 3 6 11 10 16 10 6 0 7 -4 4 -10z
m-10510 -228 c-3 -3 -11 0 -18 7 -9 10 -8 11 6 5 10 -3 15 -9 12 -12z m-2 -42
c-3 -11 -9 -17 -15 -14 -5 3 -4 12 3 20 16 19 18 18 12 -6z m4 -64 c0 -8 -6
-12 -15 -9 -11 5 -11 7 0 14 7 5 13 9 14 9 0 0 1 -6 1 -14z m9967 -114 c3 -5
-1 -9 -9 -9 -8 0 -12 4 -9 9 3 4 7 8 9 8 2 0 6 -4 9 -8z m-4769 -133 c-3 -12
-7 -24 -10 -27 -3 -3 -3 5 -1 19 6 30 5 29 10 29 3 0 3 -10 1 -21z m-2 -94
c-7 -21 -12 -19 -10 4 0 11 5 18 9 15 4 -3 5 -11 1 -19z m2 -366 c-4 -5 -12
-9 -18 -8 -9 0 -8 2 1 6 6 2 9 10 6 15 -4 7 -2 8 5 4 6 -4 9 -12 6 -17z m5
-53 c0 -3 -4 -8 -10 -11 -5 -3 -10 -1 -10 4 0 6 5 11 10 11 6 0 10 -2 10 -4z
m-6 -133 c-3 -36 -2 -35 -14 -28 -6 4 -7 12 -3 18 4 7 8 15 9 20 6 29 11 22 8
-10z m0 -349 c3 -8 2 -12 -4 -9 -6 3 -10 10 -10 16 0 14 7 11 14 -7z m-3 -31
c13 -16 12 -17 -3 -4 -10 7 -18 15 -18 17 0 8 8 3 21 -13z m-29 -440 c-6 -2
-9 -10 -6 -15 4 -7 2 -8 -5 -4 -13 9 -5 26 12 25 9 0 8 -2 -1 -6z m-5127 -81
c-3 -3 -11 0 -18 7 -9 10 -8 11 6 5 10 -3 15 -9 12 -12z"/>
<path d="M8000 6825 c-7 -9 -8 -15 -2 -15 5 0 12 7 16 15 3 8 4 15 2 15 -2 0
-9 -7 -16 -15z"/>
<path d="M7870 6715 c-11 -13 -10 -14 4 -9 9 3 16 10 16 15 0 13 -6 11 -20 -6z"/>
<path d="M8150 6560 c-11 -7 -11 -10 -2 -10 8 0 10 -5 6 -12 -5 -9 -3 -9 9 1
9 7 14 17 11 22 -6 11 -6 11 -24 -1z"/>
<path d="M8097 6519 c7 -7 15 -10 18 -7 3 3 -2 9 -12 12 -14 6 -15 5 -6 -5z"/>
<path d="M5710 12049 c0 -5 5 -7 10 -4 6 3 10 8 10 11 0 2 -4 4 -10 4 -5 0
-10 -5 -10 -11z"/>
<path d="M6710 12049 c0 -5 5 -7 10 -4 6 3 10 8 10 11 0 2 -4 4 -10 4 -5 0
-10 -5 -10 -11z"/>
<path d="M8175 11030 c-3 -5 -1 -10 4 -10 6 0 11 5 11 10 0 6 -2 10 -4 10 -3
0 -8 -4 -11 -10z"/>
<path d="M47 10479 c7 -7 15 -10 18 -7 3 3 -2 9 -12 12 -14 6 -15 5 -6 -5z"/>
<path d="M43 8885 c0 -8 4 -12 9 -9 5 3 6 10 3 15 -9 13 -12 11 -12 -6z"/>
<path d="M13529 6973 c-13 -16 -12 -17 4 -4 9 7 17 15 17 17 0 8 -8 3 -21 -13z"/>
<path d="M2945 6360 c-3 -5 -1 -10 4 -10 6 0 11 5 11 10 0 6 -2 10 -4 10 -3 0
-8 -4 -11 -10z"/>
<path d="M13505 4600 c3 -5 8 -10 11 -10 2 0 4 5 4 10 0 6 -5 10 -11 10 -5 0
-7 -4 -4 -10z"/>
<path d="M2899 4097 c6 -8 7 -18 3 -22 -4 -5 -1 -5 6 -1 10 6 10 11 1 22 -6 8
-14 14 -16 14 -3 0 0 -6 6 -13z"/>
<path d="M13270 3559 c0 -5 5 -7 10 -4 6 3 10 8 10 11 0 2 -4 4 -10 4 -5 0
-10 -5 -10 -11z"/>
<path d="M8129 3478 c-7 -23 -7 -48 -1 -52 5 -3 8 5 7 17 -1 12 3 25 9 29 8 5
7 8 -1 8 -7 0 -13 -1 -14 -2z"/>
<path d="M8123 2895 c0 -7 6 -11 14 -8 7 3 13 6 13 8 0 2 -6 5 -13 8 -8 3 -14
-1 -14 -8z"/>
<path d="M8120 2406 c0 -2 7 -7 16 -10 8 -3 12 -2 9 4 -6 10 -25 14 -25 6z"/>
<path d="M2898 2013 c7 -3 16 -2 19 1 4 3 -2 6 -13 5 -11 0 -14 -3 -6 -6z"/>
</g>
</svg>
