<?xml version="1.0" encoding="UTF-8"?>
<!DOCTYPE svg PUBLIC "-//W3C//DTD SVG 1.1//EN" "http://www.w3.org/Graphics/SVG/1.1/DTD/svg11.dtd">
<!-- Creator: CorelDRAW 2021.5 -->
<svg xmlns="http://www.w3.org/2000/svg" xml:space="preserve" width="64px" height="64px" version="1.1" style="shape-rendering:geometricPrecision; text-rendering:geometricPrecision; image-rendering:optimizeQuality; fill-rule:evenodd; clip-rule:evenodd"
viewBox="0 0 64 64"
 xmlns:xlink="http://www.w3.org/1999/xlink"
 xmlns:xodm="http://www.corel.com/coreldraw/odm/2003">
 <defs>
  <style type="text/css">
   <![CDATA[
    .fil2 {fill:#33A34B}
    .fil3 {fill:#41B662}
    .fil0 {fill:#535A54}
    .fil1 {fill:#656966}
   ]]>
  </style>
 </defs>
 <g id="Слой_x0020_1">
  <metadata id="CorelCorpID_0Corel-Layer"/>
  <g id="_1378206520448">
   <g>
    <path class="fil0" d="M14.61 13.29c5.72,-0.21 3.77,-1.85 10.93,-2.08 6.87,-0.22 7.16,0.58 13.07,1.56 -1.45,-3.66 -1.45,-1.06 -0.36,-4.6 4.18,-1.38 4.05,0.35 7.53,-1.66 -1.73,-4.83 -2.51,-3.87 -7.31,-4.15 -3.69,5.17 -2.72,7.91 -8.93,8.24 -1.88,-3.09 -3.73,-10.55 -8.28,-9.44 -0.72,2.93 1.71,6.77 3.18,9.17 -7.49,0.6 -3.64,-0.59 -8.62,-5.03 -3.29,-2.94 -6.32,-3.59 -10.63,-2.07 -0.24,6.12 4.34,3.48 8.77,4.93l0.65 5.13z"/>
    <path class="fil0" d="M14.61 49.97l-0.34 4.93c-5.27,1.57 -6.83,-1.15 -9.5,4.3 3.7,2.64 7.24,1.58 10.5,-1.02 5.04,-4.03 1.87,-5.99 8.23,-5.44 -1.04,4.93 -4.47,5.56 -1.57,9.62 5.79,-1.3 4.26,-7.39 7.67,-9.88 7.63,0.22 3.25,2.13 7.71,6.4 3.72,3.56 6.92,1.96 8.47,-2.38 -3.48,-2 -3.34,-0.27 -7.52,-1.65l-0.65 -3.92c-4.36,0.1 -7.45,1.22 -13.07,0.94 -6.39,-0.32 -5.05,-2.39 -9.93,-1.9z"/>
   </g>
   <g>
    <path class="fil1" d="M37.45 21.51c0.21,1.33 0.5,1 -0.84,1l-0.92 1 -0.06 3 0.05 9 0.19 4 0.74 1 1.03 1 0.68 2.03 4.29 0.18c4.8,-1.82 1.11,-1.44 5,-4.21l0.43 -3.38c3.99,-0.34 3.41,2.4 6.74,-1.62 -4.25,-5.12 -2.08,0.12 -6.26,-1.92 1.21,-8.4 1.07,2.18 6.26,-4.08 -3.33,-4.02 -2.75,-1.28 -6.51,-1.66l-0.66 -3.34c-3.84,-2.74 -0.24,-2.33 -5,-4.27 -3.18,0.03 -4.28,-0.96 -5.16,2.27z"/>
    <path class="fil1" d="M47.61 39.51l0.08 5.74c3.49,3.32 8.52,5.01 12.66,2 -0.75,-4.78 -3.13,-3.5 -7.48,-4 -3.73,-3.72 -0.64,-3.22 -5.26,-3.74z"/>
    <path class="fil1" d="M47.61 23.51c4.62,-0.52 1.53,-0.03 5.26,-3.74 4.35,-0.51 6.73,0.78 7.48,-4 -4.14,-3.01 -9.17,-1.32 -12.48,2l-0.26 5.74z"/>
   </g>
   <path class="fil2" d="M14.61 13.29c-6.85,4.31 -12.28,9.56 -12.13,18.21 0.19,10.65 5.57,12.57 12.13,18.47 4.88,-0.49 3.54,1.58 9.93,1.9 5.62,0.28 8.71,-0.84 13.07,-0.94l6.37 -3.03c0.31,-5.24 -3.44,0.66 -1.37,-4.18l-4.29 -0.18 -0.68 -2.03 -1.03 -1 -0.74 -1 -0.19 -4 -2.46 -2.72 1.1 -6.28c-2.32,2.39 -23.6,1.37 -26.31,0.57 -0.31,-5.58 6.5,-9.33 12.12,-10.94 7.03,-2.02 15.04,-0.83 21.48,1.64l3 -1.68 -6 -3.33c-5.91,-0.98 -6.2,-1.78 -13.07,-1.56 -7.16,0.23 -5.21,1.87 -10.93,2.08z"/>
   <path class="fil3" d="M34.32 26.51l1.31 0 0.06 -3 0.92 -1 0.84 -1c0.88,-3.23 1.98,-2.24 5.16,-2.27l-1 -1.46c-6.44,-2.47 -14.45,-3.66 -21.48,-1.64 -5.62,1.61 -12.43,5.36 -12.12,10.94 2.71,0.8 23.99,1.82 26.31,-0.57z"/>
  </g>
 </g>
</svg>
