<svg width="20.5" height="20.5" version="1.1" viewBox="0 0 20.5 20.5" xmlns="http://www.w3.org/2000/svg"><path d="m4.17 1.18c-1.03.274-1.82 1.26-1.79 2.34.0275 1.21 1.09 2.06 1.36 3.2.416 1.76.132 3.96.099 5.76-.0324 1.76-1.66 3.12-1.44 4.8.172 1.27 1.42 2.3 2.72 2.07 1.22-.217 2.18-1.47 2-2.71-.163-1.11-1.12-1.85-1.48-2.88-.583-1.66-.324-4.34-.173-6.08.142-1.64 1.91-2.82 1.66-4.48-.204-1.35-1.6-2.38-2.94-2.02m8.31 3.94c3.34.253 3.27 6.07 2.37 8.64-.327.93-1.14 1.61-1.41 2.56-.413 1.43.74 3.02 2.24 3.06 1.31.0328 2.42-1.13 2.42-2.42.00064-1.34-1.23-2.22-1.42-3.52-.574-3.94 1.65-9.86-4.21-9.92l.64-2.56c-.745.348-1.32.715-1.92 1.3-.588.572-1.4 1.33-1.4 2.22 0 2.29 4.73 4.44 2.68.64z" style="fill:#0f1114"/><circle cx="4.74" cy="3.62" r="1.61" style="fill:#00baff"/><circle cx="4.6" cy="17" r="1.61" style="fill:#00baff"/><circle cx="15.8" cy="17" r="1.61" style="fill:#00baff"/></svg>
