<svg width="20" height="20" version="1.1" viewBox="0 0 20 20" xmlns="http://www.w3.org/2000/svg"><path d="m6.1 18c-.68-.68-.45-2.1.46-2.8.46-.36 1.4-.32 1.6-.32s2-2.4 4.4-4.8 4.6-4.5 4.8-4.5c.2 0 .55.23.78.5.36.43-.23 1.1-4.3 5.2-2.6 2.6-4.7 4.9-4.7 5.2 0 .63-1.5 1.9-2.2 1.9-.29 0-.71-.17-.92-.38zm-2.7-3.1c-1.6-1.8-2-4.8-.9-6.8l.6-1.1.22.87c.12.48.42 1 .67 1.2.37.31.45.11.45-1.2.00025-1.6 1.6-5.6 2.2-5.6.15 0 .44.84.65 1.9.4 2 1.3 3.7 1.3 2.5.0056-.32.17-.89.37-1.3.34-.64.4-.6 1.1.74 1.2 2.3 1.1 3.1-1.1 5.1-1 .97-2.2 1.9-2.7 2.1-.47.2-1.1.73-1.4 1.2-.63.96-.84 1-1.5.25z" style="stroke-width:.32"/><path d="m3.9 15c-.35-.21-.96-1-1.3-1.6-.21-.43-.44-1.1-.56-1.7-.086-.4-.11-.66-.11-1.3.00016-.89.085-1.4.34-2 .14-.35.76-1.5.8-1.5.014 0 .085.23.16.51.16.64.38 1.1.65 1.4.23.24.39.28.47.11.032-.059.075-.49.097-.97.043-.92.14-1.4.44-2.4.49-1.6 1.4-3.4 1.7-3.4.14 0 .41.78.64 1.8.32 1.5.93 2.9 1.2 2.9.091 0 .17-.2.17-.44 0-.37.33-1.2.58-1.5.15-.18.32.04.89 1.2 1.1 2.1.97 2.9-.71 4.6-1.1 1.1-2.4 2.2-3 2.5-.67.33-1.1.73-1.6 1.4-.31.43-.54.65-.67.65-.045-1e-4-.15-.041-.23-.09z" style="fill:#d45500;stroke-width:.049"/></svg>
