<?xml version="1.0" encoding="UTF-8" standalone="no"?>
<!-- Created with Inkscape (http://www.inkscape.org/) -->

<svg
   version="1.1"
   id="svg9"
   width="20.48"
   height="20.48"
   viewBox="0 0 20.48 20.48"
   sodipodi:docname="PyCharm_$Delete.svg"
   inkscape:version="1.2 (dc2aedaf03, 2022-05-15)"
   xml:space="preserve"
   xmlns:inkscape="http://www.inkscape.org/namespaces/inkscape"
   xmlns:sodipodi="http://sodipodi.sourceforge.net/DTD/sodipodi-0.dtd"
   xmlns="http://www.w3.org/2000/svg"
   xmlns:svg="http://www.w3.org/2000/svg"><defs
     id="defs13" /><sodipodi:namedview
     id="namedview11"
     pagecolor="#ffffff"
     bordercolor="#000000"
     borderopacity="0.25"
     inkscape:showpageshadow="2"
     inkscape:pageopacity="0.0"
     inkscape:pagecheckerboard="0"
     inkscape:deskcolor="#d1d1d1"
     showgrid="false"
     inkscape:zoom="14.12142"
     inkscape:cx="10.12646"
     inkscape:cy="7.1876625"
     inkscape:window-width="1372"
     inkscape:window-height="1012"
     inkscape:window-x="-7"
     inkscape:window-y="0"
     inkscape:window-maximized="0"
     inkscape:current-layer="g15" /><g
     inkscape:groupmode="layer"
     inkscape:label="Image"
     id="g15"><path
       style="fill:#db7364;stroke:none;stroke-width:0.32"
       d="M 18.018904,5.0064603 C 17.798232,4.5349723 17.652408,4.1150686 17.277656,3.7323806 14.354712,0.74768622 13.024984,6.9086683 10.338903,6.9086683 c -2.2437745,0 -3.9382065,-5.5055645 -6.3797425,-3.7017277 -3.38831103,2.5033597 4.110752,4.5950077 3.38912,7.1481594 -0.566464,2.004224 -3.733984,2.79072 -4.258759,4.89136 -0.221478,0.88656 0.656263,1.916896 1.490855,2.129376 2.535232,0.645472 3.478176,-4.361792 5.7585265,-4.362944 2.320769,-0.0012 4.415233,6.874656 6.919521,3.493312 C 18.988792,14.169788 13.865496,12.25142 13.329528,10.3551 12.852728,8.6681883 16.8526,5.8951003 18.018904,5.0064603 Z"
       id="path32046" /></g></svg>
