<svg width="16" height="16" fill="none" xmlns="http://www.w3.org/2000/svg"><g fill-rule="evenodd" clip-rule="evenodd" fill="#59A869"><path d="M6.68 12.07 13.751 5 11.823 3.07 6.68 8.214 4.11 5.643 2.18 7.57l4.5 4.5ZM2.707 15.014 2 14.307 4.707 11.6l.707.707-2.707 2.707Z"/><path d="m4 12.307.707-.707 2.707 2.707-.707.707L4 12.307Z"/><path d="M6.707 15.014 6 14.307 8.707 11.6l.707.707-2.707 2.707Z"/><path d="m8 12.307.707-.707 2.707 2.707-.707.707L8 12.307Z"/><path d="M10.707 15.014 10 14.307l2.707-2.707.707.707-2.707 2.707Z"/></g></svg>